<svg xmlns="http://www.w3.org/2000/svg" xmlns:xlink="http://www.w3.org/1999/xlink" width="40" height="40" viewBox="0 0 40 40">
  <defs>
    <clipPath id="clip-path">
      <rect id="矩形_108" data-name="矩形 108" width="40" height="40" transform="translate(772 625)" fill="none"/>
    </clipPath>
    <clipPath id="clip-path-2">
      <rect id="矩形_47" data-name="矩形 47" width="23.037" height="21.602" fill="#d0d3ff"/>
    </clipPath>
    <clipPath id="clip-path-3">
      <path id="路径_95" data-name="路径 95" d="M483.379,115.681a13.532,13.532,0,0,0,9.1,12.962c9.6,3.537,13.972,4.561,20.466,15.248a19.134,19.134,0,0,1,0,20.124H472.855V115.681Z" transform="translate(220.163 508.4)" fill="#9097ff" opacity="0.73"/>
    </clipPath>
    <clipPath id="clip-path-4">
      <rect id="矩形_47-2" data-name="矩形 47" width="23.037" height="21.602" fill="#9097ff"/>
    </clipPath>
    <clipPath id="clip-path-5">
      <path id="路径_94" data-name="路径 94" d="M483.379,115.681a13.532,13.532,0,0,0,9.1,12.962c9.6,3.537,13.972,4.561,20.466,15.248a19.134,19.134,0,0,1,0,20.124H472.855V115.681Z" transform="translate(201.543 613.211) rotate(-11)" fill="#6670ff" opacity="0.65"/>
    </clipPath>
    <clipPath id="clip-path-6">
      <rect id="矩形_47-3" data-name="矩形 47" width="23.037" height="21.602" fill="#6670ff"/>
    </clipPath>
  </defs>
  <g id="蒙版组_77" data-name="蒙版组 77" transform="translate(-772 -625)" clip-path="url(#clip-path)">
    <g id="组_213" data-name="组 213">
      <rect id="矩形_27" data-name="矩形 27" width="40" height="40" rx="5" transform="translate(772 625)" fill="#f2f3ff"/>
      <g id="组_212" data-name="组 212">
        <g id="组_46" data-name="组 46" transform="translate(313 63.994)">
          <g id="组_45" data-name="组 45" transform="translate(467 570.006)">
            <g id="组_44" data-name="组 44" clip-path="url(#clip-path-2)">
              <path id="路径_30" data-name="路径 30" d="M489.946,579.2a1.539,1.539,0,0,0-1.074-1.126l-.374-.086a3.733,3.733,0,0,1-2.555-4.448l.116-.351a1.542,1.542,0,0,0-.437-1.495,10.122,10.122,0,0,0-1.346-.871,11.19,11.19,0,0,0-1.422-.728,1.533,1.533,0,0,0-1.513.366l-.265.281a3.732,3.732,0,0,1-5.129-.008l-.252-.273a1.535,1.535,0,0,0-1.512-.366,10.932,10.932,0,0,0-1.427.728,10.186,10.186,0,0,0-1.341.876,1.525,1.525,0,0,0-.437,1.489l.109.356a3.737,3.737,0,0,1-.4,2.738,3.7,3.7,0,0,1-2.174,1.71l-.361.081a1.526,1.526,0,0,0-1.074,1.126,15.909,15.909,0,0,0,0,3.2,1.531,1.531,0,0,0,1.074,1.125l.351.08a3.738,3.738,0,0,1,2.573,4.456l-.1.348a1.545,1.545,0,0,0,.437,1.495,10.163,10.163,0,0,0,1.347.872,10.85,10.85,0,0,0,1.422.728,1.532,1.532,0,0,0,1.512-.367l.25-.265a3.74,3.74,0,0,1,5.148.005l.249.265a1.539,1.539,0,0,0,1.513.367,11.042,11.042,0,0,0,1.427-.729,10.337,10.337,0,0,0,1.341-.871,1.531,1.531,0,0,0,.437-1.495l-.109-.362a3.734,3.734,0,0,1,2.574-4.443l.351-.08a1.527,1.527,0,0,0,1.074-1.126,15.954,15.954,0,0,0,0-3.2m-11.43,6.192a4.591,4.591,0,1,1,4.593-4.588,4.6,4.6,0,0,1-4.593,4.588" transform="translate(-467 -570.008)" fill="#d0d3ff"/>
            </g>
          </g>
        </g>
        <g id="蒙版组_47" data-name="蒙版组 47" transform="translate(70)" clip-path="url(#clip-path-3)">
          <g id="组_127" data-name="组 127" transform="translate(243 63.994)">
            <g id="组_45-2" data-name="组 45" transform="translate(467 570.006)">
              <g id="组_44-2" data-name="组 44" clip-path="url(#clip-path-4)">
                <path id="路径_30-2" data-name="路径 30" d="M489.946,579.2a1.539,1.539,0,0,0-1.074-1.126l-.374-.086a3.733,3.733,0,0,1-2.555-4.448l.116-.351a1.542,1.542,0,0,0-.437-1.495,10.122,10.122,0,0,0-1.346-.871,11.19,11.19,0,0,0-1.422-.728,1.533,1.533,0,0,0-1.513.366l-.265.281a3.732,3.732,0,0,1-5.129-.008l-.252-.273a1.535,1.535,0,0,0-1.512-.366,10.932,10.932,0,0,0-1.427.728,10.186,10.186,0,0,0-1.341.876,1.525,1.525,0,0,0-.437,1.489l.109.356a3.737,3.737,0,0,1-.4,2.738,3.7,3.7,0,0,1-2.174,1.71l-.361.081a1.526,1.526,0,0,0-1.074,1.126,15.909,15.909,0,0,0,0,3.2,1.531,1.531,0,0,0,1.074,1.125l.351.08a3.738,3.738,0,0,1,2.573,4.456l-.1.348a1.545,1.545,0,0,0,.437,1.495,10.163,10.163,0,0,0,1.347.872,10.85,10.85,0,0,0,1.422.728,1.532,1.532,0,0,0,1.512-.367l.25-.265a3.74,3.74,0,0,1,5.148.005l.249.265a1.539,1.539,0,0,0,1.513.367,11.042,11.042,0,0,0,1.427-.729,10.337,10.337,0,0,0,1.341-.871,1.531,1.531,0,0,0,.437-1.495l-.109-.362a3.734,3.734,0,0,1,2.574-4.443l.351-.08a1.527,1.527,0,0,0,1.074-1.126,15.954,15.954,0,0,0,0-3.2m-11.43,6.192a4.591,4.591,0,1,1,4.593-4.588,4.6,4.6,0,0,1-4.593,4.588" transform="translate(-467 -570.008)" fill="#9097ff"/>
              </g>
            </g>
          </g>
        </g>
        <g id="蒙版组_48" data-name="蒙版组 48" transform="translate(70)" clip-path="url(#clip-path-5)">
          <g id="组_128" data-name="组 128" transform="translate(243 63.994)">
            <g id="组_45-3" data-name="组 45" transform="translate(467 570.006)">
              <g id="组_44-3" data-name="组 44" clip-path="url(#clip-path-6)">
                <path id="路径_30-3" data-name="路径 30" d="M489.946,579.2a1.539,1.539,0,0,0-1.074-1.126l-.374-.086a3.733,3.733,0,0,1-2.555-4.448l.116-.351a1.542,1.542,0,0,0-.437-1.495,10.122,10.122,0,0,0-1.346-.871,11.19,11.19,0,0,0-1.422-.728,1.533,1.533,0,0,0-1.513.366l-.265.281a3.732,3.732,0,0,1-5.129-.008l-.252-.273a1.535,1.535,0,0,0-1.512-.366,10.932,10.932,0,0,0-1.427.728,10.186,10.186,0,0,0-1.341.876,1.525,1.525,0,0,0-.437,1.489l.109.356a3.737,3.737,0,0,1-.4,2.738,3.7,3.7,0,0,1-2.174,1.71l-.361.081a1.526,1.526,0,0,0-1.074,1.126,15.909,15.909,0,0,0,0,3.2,1.531,1.531,0,0,0,1.074,1.125l.351.08a3.738,3.738,0,0,1,2.573,4.456l-.1.348a1.545,1.545,0,0,0,.437,1.495,10.163,10.163,0,0,0,1.347.872,10.85,10.85,0,0,0,1.422.728,1.532,1.532,0,0,0,1.512-.367l.25-.265a3.74,3.74,0,0,1,5.148.005l.249.265a1.539,1.539,0,0,0,1.513.367,11.042,11.042,0,0,0,1.427-.729,10.337,10.337,0,0,0,1.341-.871,1.531,1.531,0,0,0,.437-1.495l-.109-.362a3.734,3.734,0,0,1,2.574-4.443l.351-.08a1.527,1.527,0,0,0,1.074-1.126,15.954,15.954,0,0,0,0-3.2m-11.43,6.192a4.591,4.591,0,1,1,4.593-4.588,4.6,4.6,0,0,1-4.593,4.588" transform="translate(-467 -570.008)" fill="#6670ff"/>
              </g>
            </g>
          </g>
        </g>
      </g>
    </g>
  </g>
</svg>
