<svg xmlns="http://www.w3.org/2000/svg" xmlns:xlink="http://www.w3.org/1999/xlink" width="40" height="40" viewBox="0 0 40 40"><defs><style>.a,.f{fill:#3cfafa;}.b,.h{fill:#00e3e3;}.c{fill:#e5ffff;}.d{fill:#81ffff;}.e{clip-path:url(#a);}.f{opacity:0.73;}.g{clip-path:url(#b);}.h{opacity:0.65;}.i{fill:none;}</style><clipPath id="a"><path class="a" d="M87.869,139.366H67.191a.669.669,0,0,1-.661-.672V125.836a3,3,0,0,1,2.962-3.016H85.568a3,3,0,0,1,2.962,3.016v12.858A.669.669,0,0,1,87.869,139.366Zm0,2.321H67.191a.673.673,0,0,1,0-1.345H87.858a.669.669,0,0,1,.661.672A.653.653,0,0,1,87.869,141.687Zm-16.351-7.87a.15.15,0,0,1-.033.078v.258a.565.565,0,0,0,.65.583.678.678,0,0,0,.683-.437l.286-.875h2.533l.253.875a.636.636,0,0,0,.683.437c.408,0,.628-.179.65-.549a1.6,1.6,0,0,1-.077-.37l-1.795-5.078a1.125,1.125,0,0,0-1-.762,1.021,1.021,0,0,0-.969.762Zm2.841-4.383.859,2.7H73.5Zm3.755,4.607c0,.437.242.661.716.684H80.4c1.993-.1,3.039-1.177,3.16-3.251-.088-2.163-1.167-3.3-3.226-3.4H78.8a.679.679,0,0,0-.683.7v5.269Zm1.365-4.686H80.3c1.189.022,1.806.717,1.828,2.085-.066,1.312-.639,1.984-1.718,2.007h-.936v-4.092Zm0,0" transform="translate(654.47 210.747)"/></clipPath><clipPath id="b"><path class="b" d="M87.869,139.366H67.191a.669.669,0,0,1-.661-.672V125.836a3,3,0,0,1,2.962-3.016H85.568a3,3,0,0,1,2.962,3.016v12.858A.669.669,0,0,1,87.869,139.366Zm0,2.321H67.191a.673.673,0,0,1,0-1.345H87.858a.669.669,0,0,1,.661.672A.653.653,0,0,1,87.869,141.687Zm-16.351-7.87a.15.15,0,0,1-.033.078v.258a.565.565,0,0,0,.65.583.678.678,0,0,0,.683-.437l.286-.875h2.533l.253.875a.636.636,0,0,0,.683.437c.408,0,.628-.179.65-.549a1.6,1.6,0,0,1-.077-.37l-1.795-5.078a1.125,1.125,0,0,0-1-.762,1.021,1.021,0,0,0-.969.762Zm2.841-4.383.859,2.7H73.5Zm3.755,4.607c0,.437.242.661.716.684H80.4c1.993-.1,3.039-1.177,3.16-3.251-.088-2.163-1.167-3.3-3.226-3.4H78.8a.679.679,0,0,0-.683.7v5.269Zm1.365-4.686H80.3c1.189.022,1.806.717,1.828,2.085-.066,1.312-.639,1.984-1.718,2.007h-.936v-4.092Zm0,0" transform="translate(654.47 210.747)"/></clipPath></defs><g transform="translate(-712 -323)"><rect class="c" width="40" height="40" rx="5" transform="translate(712 323)"/><path class="d" d="M87.869,139.366H67.191a.669.669,0,0,1-.661-.672V125.836a3,3,0,0,1,2.962-3.016H85.568a3,3,0,0,1,2.962,3.016v12.858A.669.669,0,0,1,87.869,139.366Zm0,2.321H67.191a.673.673,0,0,1,0-1.345H87.858a.669.669,0,0,1,.661.672A.653.653,0,0,1,87.869,141.687Zm-16.351-7.87a.15.15,0,0,1-.033.078v.258a.565.565,0,0,0,.65.583.678.678,0,0,0,.683-.437l.286-.875h2.533l.253.875a.636.636,0,0,0,.683.437c.408,0,.628-.179.65-.549a1.6,1.6,0,0,1-.077-.37l-1.795-5.078a1.125,1.125,0,0,0-1-.762,1.021,1.021,0,0,0-.969.762Zm2.841-4.383.859,2.7H73.5Zm3.755,4.607c0,.437.242.661.716.684H80.4c1.993-.1,3.039-1.177,3.16-3.251-.088-2.163-1.167-3.3-3.226-3.4H78.8a.679.679,0,0,0-.683.7v5.269Zm1.365-4.686H80.3c1.189.022,1.806.717,1.828,2.085-.066,1.312-.639,1.984-1.718,2.007h-.936v-4.092Zm0,0" transform="translate(654.47 210.747)"/><g class="e"><path class="f" d="M483.379,115.681a13.532,13.532,0,0,0,9.1,12.962c9.6,3.537,13.972,4.561,20.466,15.248a19.134,19.134,0,0,1,0,20.124H472.855V115.681Z" transform="translate(233.66 207.319)"/></g><g class="g"><path class="h" d="M483.379,115.681a13.532,13.532,0,0,0,9.1,12.962c9.6,3.537,13.972,4.561,20.466,15.248a19.134,19.134,0,0,1,0,20.124H472.855V115.681Z" transform="translate(237.145 216.586)"/></g><rect class="i" width="40" height="40" transform="translate(712 323)"/></g></svg>