<svg xmlns="http://www.w3.org/2000/svg" xmlns:xlink="http://www.w3.org/1999/xlink" width="40" height="40" viewBox="0 0 40 40">
  <defs>
    <clipPath id="clip-path">
      <rect id="矩形_92" data-name="矩形 92" width="40" height="40" transform="translate(620 282)" fill="none"/>
    </clipPath>
    <clipPath id="clip-path-2">
      <rect id="矩形_43" data-name="矩形 43" width="25.434" height="22.486" fill="#ffc8c8"/>
    </clipPath>
    <clipPath id="clip-path-3">
      <path id="路径_55" data-name="路径 55" d="M483.379,115.681a13.532,13.532,0,0,0,9.1,12.962c9.6,3.537,13.972,4.561,20.466,15.248a19.134,19.134,0,0,1,0,20.124H472.855V115.681Z" transform="matrix(1, 0, 0, 1, 71.487, 166.319)" fill="#ff8989" opacity="0.2"/>
    </clipPath>
    <clipPath id="clip-path-4">
      <rect id="矩形_43-2" data-name="矩形 43" width="25.434" height="22.486" fill="#ff8989"/>
    </clipPath>
    <clipPath id="clip-path-5">
      <path id="路径_54" data-name="路径 54" d="M483.379,115.681a13.532,13.532,0,0,0,9.1,12.962c9.6,3.537,13.972,4.561,20.466,15.248a19.134,19.134,0,0,1,0,20.124H472.855V115.681Z" transform="translate(112.176 54.87) rotate(14)" fill="#ff5656" opacity="0.2"/>
    </clipPath>
    <clipPath id="clip-path-6">
      <rect id="矩形_43-3" data-name="矩形 43" width="25.434" height="22.486" fill="#ff5656"/>
    </clipPath>
  </defs>
  <g id="蒙版组_61" data-name="蒙版组 61" transform="translate(-620 -282)" clip-path="url(#clip-path)">
    <g id="组_181" data-name="组 181">
      <rect id="矩形_19" data-name="矩形 19" width="40" height="40" rx="5" transform="translate(620 282)" fill="#ffebeb"/>
      <g id="组_180" data-name="组 180">
        <g id="组_33" data-name="组 33" transform="translate(316.995 66.997)">
          <g id="组_32" data-name="组 32" transform="translate(311.005 224.003)">
            <g id="组_31" data-name="组 31" clip-path="url(#clip-path-2)">
              <path id="路径_21" data-name="路径 21" d="M323.718,228.07c5.948,0,10.975,3.352,12.615,7.955.131.284.286,1.64-.741.859-.136-.113-.3-.219-.443-.318a4.7,4.7,0,0,0-2.612-.823,5.046,5.046,0,0,0-4.168,2.406.282.282,0,0,1-.481,0,4.813,4.813,0,0,0-8.339,0,.284.284,0,0,1-.484-.007,5,5,0,0,0-4.165-2.4,4.734,4.734,0,0,0-3.055,1.14c-.783.656-1-.145-.74-.866,1.643-4.6,6.668-7.949,12.615-7.949Zm0,0" transform="translate(-311.004 -225.114)" fill="#ffc8c8"/>
            </g>
          </g>
          <path id="路径_22" data-name="路径 22" d="M324.616,239.682h2.64v7l-2.64.821Zm-4.351,5.73a1.333,1.333,0,0,1,1.33,1.329v.033a1.33,1.33,0,0,1-2.66,0v-.033a1.333,1.333,0,0,1,1.33-1.329Zm0,0" transform="translate(-2.167 -4.284)" fill="#ffc8c8"/>
          <path id="路径_23" data-name="路径 23" d="M327.257,242.41a4.161,4.161,0,0,1-8.32,0h2.648a1.519,1.519,0,0,0,3.024,0Zm0-16.223v-.823a1.32,1.32,0,1,0-2.64,0v.823Zm0,0" transform="translate(-2.167 -0.011)" fill="#ffc8c8"/>
        </g>
        <g id="蒙版组_13" data-name="蒙版组 13" transform="translate(70)" clip-path="url(#clip-path-3)">
          <g id="组_84" data-name="组 84" transform="translate(246.995 66.997)">
            <g id="组_32-2" data-name="组 32" transform="translate(311.005 224.003)">
              <g id="组_31-2" data-name="组 31" clip-path="url(#clip-path-4)">
                <path id="路径_21-2" data-name="路径 21" d="M323.718,228.07c5.948,0,10.975,3.352,12.615,7.955.131.284.286,1.64-.741.859-.136-.113-.3-.219-.443-.318a4.7,4.7,0,0,0-2.612-.823,5.046,5.046,0,0,0-4.168,2.406.282.282,0,0,1-.481,0,4.813,4.813,0,0,0-8.339,0,.284.284,0,0,1-.484-.007,5,5,0,0,0-4.165-2.4,4.734,4.734,0,0,0-3.055,1.14c-.783.656-1-.145-.74-.866,1.643-4.6,6.668-7.949,12.615-7.949Zm0,0" transform="translate(-311.004 -225.114)" fill="#ff8989"/>
              </g>
            </g>
            <path id="路径_22-2" data-name="路径 22" d="M324.616,239.682h2.64v7l-2.64.821Zm-4.351,5.73a1.333,1.333,0,0,1,1.33,1.329v.033a1.33,1.33,0,0,1-2.66,0v-.033a1.333,1.333,0,0,1,1.33-1.329Zm0,0" transform="translate(-2.167 -4.284)" fill="#ff8989"/>
            <path id="路径_23-2" data-name="路径 23" d="M327.257,242.41a4.161,4.161,0,0,1-8.32,0h2.648a1.519,1.519,0,0,0,3.024,0Zm0-16.223v-.823a1.32,1.32,0,1,0-2.64,0v.823Zm0,0" transform="translate(-2.167 -0.011)" fill="#ff8989"/>
          </g>
        </g>
        <g id="蒙版组_14" data-name="蒙版组 14" transform="translate(70)" clip-path="url(#clip-path-5)">
          <g id="组_85" data-name="组 85" transform="translate(246.995 66.997)">
            <g id="组_32-3" data-name="组 32" transform="translate(311.005 224.003)">
              <g id="组_31-3" data-name="组 31" clip-path="url(#clip-path-6)">
                <path id="路径_21-3" data-name="路径 21" d="M323.718,228.07c5.948,0,10.975,3.352,12.615,7.955.131.284.286,1.64-.741.859-.136-.113-.3-.219-.443-.318a4.7,4.7,0,0,0-2.612-.823,5.046,5.046,0,0,0-4.168,2.406.282.282,0,0,1-.481,0,4.813,4.813,0,0,0-8.339,0,.284.284,0,0,1-.484-.007,5,5,0,0,0-4.165-2.4,4.734,4.734,0,0,0-3.055,1.14c-.783.656-1-.145-.74-.866,1.643-4.6,6.668-7.949,12.615-7.949Zm0,0" transform="translate(-311.004 -225.114)" fill="#ff5656"/>
              </g>
            </g>
            <path id="路径_22-3" data-name="路径 22" d="M324.616,239.682h2.64v7l-2.64.821Zm-4.351,5.73a1.333,1.333,0,0,1,1.33,1.329v.033a1.33,1.33,0,0,1-2.66,0v-.033a1.333,1.333,0,0,1,1.33-1.329Zm0,0" transform="translate(-2.167 -4.284)" fill="#ff5656"/>
            <path id="路径_23-3" data-name="路径 23" d="M327.257,242.41a4.161,4.161,0,0,1-8.32,0h2.648a1.519,1.519,0,0,0,3.024,0Zm0-16.223v-.823a1.32,1.32,0,1,0-2.64,0v.823Zm0,0" transform="translate(-2.167 -0.011)" fill="#ff5656"/>
          </g>
        </g>
      </g>
    </g>
  </g>
</svg>
