<svg xmlns="http://www.w3.org/2000/svg" xmlns:xlink="http://www.w3.org/1999/xlink" width="40" height="40" viewBox="0 0 40 40"><defs><style>.a{fill:#ffd000;}.b{fill:#ffefe5;}.c{clip-path:url(#a);}.d{fill:#ffab00;opacity:0.73;}.e{clip-path:url(#b);}.f{fill:#ff8700;opacity:0.65;}.g{fill:none;}</style><clipPath id="a"><path class="a" d="M92.532,275.157a2.16,2.16,0,0,1,1.933-2.342c1.741-.072,3.488-.016,5.232-.01a2.861,2.861,0,0,0,3.345,2.17,10.087,10.087,0,0,0,.355,4.018c.9,1.1,2.352,1.1,3.644.917.26-.3.5-.686.959-.625a11.667,11.667,0,0,0,.417-4.3,3.03,3.03,0,0,0,3.553-2.209c1.763.046,3.53-.049,5.29.042a2.164,2.164,0,0,1,1.894,2.349c-.036,4.776.013,9.552-.01,14.328a2.443,2.443,0,0,1-1.24,1.962c-7.818-.046-15.639-.013-23.457-.017a1.865,1.865,0,0,1-1.9-1.913c-.026-4.789.026-9.581-.013-14.373M95.74,285.48c.029.673.042,1.35.065,2.024,2.5.052,4.991,0,7.486.033.013-.7.023-1.4.042-2.092-2.528-.03-5.066-.1-7.593.035Z" transform="translate(303.479 16.651)"/></clipPath><clipPath id="b"><path class="a" d="M92.532,275.157a2.16,2.16,0,0,1,1.933-2.342c1.741-.072,3.488-.016,5.232-.01a2.861,2.861,0,0,0,3.345,2.17,10.087,10.087,0,0,0,.355,4.018c.9,1.1,2.352,1.1,3.644.917.26-.3.5-.686.959-.625a11.667,11.667,0,0,0,.417-4.3,3.03,3.03,0,0,0,3.553-2.209c1.763.046,3.53-.049,5.29.042a2.164,2.164,0,0,1,1.894,2.349c-.036,4.776.013,9.552-.01,14.328a2.443,2.443,0,0,1-1.24,1.962c-7.818-.046-15.639-.013-23.457-.017a1.865,1.865,0,0,1-1.9-1.913c-.026-4.789.026-9.581-.013-14.373M95.74,285.48c.029.673.042,1.35.065,2.024,2.5.052,4.991,0,7.486.033.013-.7.023-1.4.042-2.092-2.528-.03-5.066-.1-7.593.035Z" transform="translate(357.479 21.651)"/></clipPath></defs><g transform="translate(-596 -879)"><g transform="translate(153 598)"><rect class="b" width="40" height="40" rx="5" transform="translate(443 281)"/><path class="a" d="M369.486,106.313c1.366-1.549,2.928-2.909,4.324-4.425,1.35,1.48,2.86,2.808,4.207,4.291a1.1,1.1,0,0,1-1.132,1.78c-.752-.416-1.2-1.233-1.972-1.633-.017,1.9.065,3.8-.017,5.7a1.118,1.118,0,0,1-2.166-.016c-.078-1.89,0-3.784-.013-5.674-.768.394-1.23,1.165-1.949,1.61A1.1,1.1,0,0,1,369.486,106.313Z" transform="translate(89.498 187.112)"/><path class="a" d="M92.532,275.157a2.16,2.16,0,0,1,1.933-2.342c1.741-.072,3.488-.016,5.232-.01a2.861,2.861,0,0,0,3.345,2.17,10.087,10.087,0,0,0,.355,4.018c.9,1.1,2.352,1.1,3.644.917.26-.3.5-.686.959-.625a11.667,11.667,0,0,0,.417-4.3,3.03,3.03,0,0,0,3.553-2.209c1.763.046,3.53-.049,5.29.042a2.164,2.164,0,0,1,1.894,2.349c-.036,4.776.013,9.552-.01,14.328a2.443,2.443,0,0,1-1.24,1.962c-7.818-.046-15.639-.013-23.457-.017a1.865,1.865,0,0,1-1.9-1.913c-.026-4.789.026-9.581-.013-14.373M95.74,285.48c.029.673.042,1.35.065,2.024,2.5.052,4.991,0,7.486.033.013-.7.023-1.4.042-2.092-2.528-.03-5.066-.1-7.593.035Z" transform="translate(357.479 21.651)"/><g class="c" transform="translate(54 5)"><path class="d" d="M483.379,115.681a13.532,13.532,0,0,0,9.1,12.962c9.6,3.537,13.972,4.561,20.466,15.248a19.134,19.134,0,0,1,0,20.124H472.855V115.681Z" transform="translate(-87.826 160.985)"/></g><g class="e"><path class="f" d="M483.379,115.681a13.532,13.532,0,0,0,9.1,12.962c9.6,3.537,13.972,4.561,20.466,15.248a19.134,19.134,0,0,1,0,20.124H472.855V115.681Z" transform="translate(-33.745 177.319)"/></g></g><rect class="g" width="40" height="40" transform="translate(596 879)"/></g></svg>