<svg xmlns="http://www.w3.org/2000/svg" xmlns:xlink="http://www.w3.org/1999/xlink" width="40" height="40" viewBox="0 0 40 40">
  <defs>
    <clipPath id="clip-path">
      <rect id="矩形_93" data-name="矩形 93" width="40" height="40" transform="translate(698 282)" fill="none"/>
    </clipPath>
    <clipPath id="clip-path-2">
      <rect id="矩形_42" data-name="矩形 42" width="23.539" height="21.857" fill="#ffc8c8"/>
    </clipPath>
    <clipPath id="clip-path-3">
      <path id="路径_56" data-name="路径 56" d="M483.379,115.681a13.532,13.532,0,0,0,9.1,12.962c9.6,3.537,13.972,4.561,20.466,15.248a19.134,19.134,0,0,1,0,20.124H472.855V115.681Z" transform="translate(167.215 106.053) rotate(7)" fill="#ff8989" opacity="0.2"/>
    </clipPath>
    <clipPath id="clip-path-4">
      <rect id="矩形_42-2" data-name="矩形 42" width="23.539" height="21.857" fill="#ff8989"/>
    </clipPath>
    <clipPath id="clip-path-5">
      <path id="路径_57" data-name="路径 57" d="M483.379,115.681a13.532,13.532,0,0,0,9.1,12.962c9.6,3.537,13.972,4.561,20.466,15.248a19.134,19.134,0,0,1,0,20.124H472.855V115.681Z" transform="translate(234.269 -11.996) rotate(23)" fill="#ff5656" opacity="0.2"/>
    </clipPath>
    <clipPath id="clip-path-6">
      <rect id="矩形_42-3" data-name="矩形 42" width="23.539" height="21.857" fill="#ff5656"/>
    </clipPath>
  </defs>
  <g id="蒙版组_62" data-name="蒙版组 62" transform="translate(-698 -282)" clip-path="url(#clip-path)">
    <g id="组_183" data-name="组 183">
      <rect id="矩形_20" data-name="矩形 20" width="40" height="40" rx="5" transform="translate(698 282)" fill="#ffebeb"/>
      <g id="组_182" data-name="组 182">
        <g id="组_30" data-name="组 30" transform="translate(315.996 66.99)">
          <g id="组_29" data-name="组 29" transform="translate(390.004 224.01)">
            <g id="组_28" data-name="组 28" clip-path="url(#clip-path-2)">
              <path id="路径_19" data-name="路径 19" d="M391.366,228.6h21.206a.571.571,0,0,0,.475-.909l-2.053-2.728a2.37,2.37,0,0,0-1.9-.937h-14.25a2.372,2.372,0,0,0-1.9.937l-2.051,2.728a.57.57,0,0,0,.473.909Zm0,0" transform="translate(-390.21 -224.015)" fill="#ffc8c8"/>
              <path id="路径_20" data-name="路径 20" d="M412.933,231.8H390.588a.6.6,0,0,0-.588.617v13.624a1.813,1.813,0,0,0,1.763,1.857h19.994a1.812,1.812,0,0,0,1.763-1.857V232.42a.6.6,0,0,0-.588-.619Zm-16.945,11.091h-2.4a.859.859,0,0,1-.05-1.716h2.4a.858.858,0,0,1,.05,1.716Zm2.353-4h-4.756a.858.858,0,0,1-.05-1.715h4.755a.858.858,0,0,1,.051,1.715Zm12.477.892a.837.837,0,0,1-.063.313l0,.012a.861.861,0,0,1-.192.282l-3.326,3.235a.9.9,0,0,1-1.249,0,.842.842,0,0,1-.025-1.189l.027-.024,1.82-1.77h-5.351a.858.858,0,0,1,0-1.715h5.356l-1.825-1.772a.84.84,0,0,1-.025-1.188l.025-.025a.9.9,0,0,1,1.25,0l3.325,3.234a.859.859,0,0,1,.193.283l0,.012a.846.846,0,0,1,.063.313Zm0,0" transform="translate(-390.003 -226.069)" fill="#ffc8c8"/>
            </g>
          </g>
        </g>
        <g id="蒙版组_15" data-name="蒙版组 15" transform="translate(70)" clip-path="url(#clip-path-3)">
          <g id="组_86" data-name="组 86" transform="translate(245.996 66.99)">
            <g id="组_29-2" data-name="组 29" transform="translate(390.004 224.01)">
              <g id="组_28-2" data-name="组 28" clip-path="url(#clip-path-4)">
                <path id="路径_19-2" data-name="路径 19" d="M391.366,228.6h21.206a.571.571,0,0,0,.475-.909l-2.053-2.728a2.37,2.37,0,0,0-1.9-.937h-14.25a2.372,2.372,0,0,0-1.9.937l-2.051,2.728a.57.57,0,0,0,.473.909Zm0,0" transform="translate(-390.21 -224.015)" fill="#ff8989"/>
                <path id="路径_20-2" data-name="路径 20" d="M412.933,231.8H390.588a.6.6,0,0,0-.588.617v13.624a1.813,1.813,0,0,0,1.763,1.857h19.994a1.812,1.812,0,0,0,1.763-1.857V232.42a.6.6,0,0,0-.588-.619Zm-16.945,11.091h-2.4a.859.859,0,0,1-.05-1.716h2.4a.858.858,0,0,1,.05,1.716Zm2.353-4h-4.756a.858.858,0,0,1-.05-1.715h4.755a.858.858,0,0,1,.051,1.715Zm12.477.892a.837.837,0,0,1-.063.313l0,.012a.861.861,0,0,1-.192.282l-3.326,3.235a.9.9,0,0,1-1.249,0,.842.842,0,0,1-.025-1.189l.027-.024,1.82-1.77h-5.351a.858.858,0,0,1,0-1.715h5.356l-1.825-1.772a.84.84,0,0,1-.025-1.188l.025-.025a.9.9,0,0,1,1.25,0l3.325,3.234a.859.859,0,0,1,.193.283l0,.012a.846.846,0,0,1,.063.313Zm0,0" transform="translate(-390.003 -226.069)" fill="#ff8989"/>
              </g>
            </g>
          </g>
        </g>
        <g id="蒙版组_16" data-name="蒙版组 16" transform="translate(70)" clip-path="url(#clip-path-5)">
          <g id="组_87" data-name="组 87" transform="translate(245.996 66.99)">
            <g id="组_29-3" data-name="组 29" transform="translate(390.004 224.01)">
              <g id="组_28-3" data-name="组 28" clip-path="url(#clip-path-6)">
                <path id="路径_19-3" data-name="路径 19" d="M391.366,228.6h21.206a.571.571,0,0,0,.475-.909l-2.053-2.728a2.37,2.37,0,0,0-1.9-.937h-14.25a2.372,2.372,0,0,0-1.9.937l-2.051,2.728a.57.57,0,0,0,.473.909Zm0,0" transform="translate(-390.21 -224.015)" fill="#ff5656"/>
                <path id="路径_20-3" data-name="路径 20" d="M412.933,231.8H390.588a.6.6,0,0,0-.588.617v13.624a1.813,1.813,0,0,0,1.763,1.857h19.994a1.812,1.812,0,0,0,1.763-1.857V232.42a.6.6,0,0,0-.588-.619Zm-16.945,11.091h-2.4a.859.859,0,0,1-.05-1.716h2.4a.858.858,0,0,1,.05,1.716Zm2.353-4h-4.756a.858.858,0,0,1-.05-1.715h4.755a.858.858,0,0,1,.051,1.715Zm12.477.892a.837.837,0,0,1-.063.313l0,.012a.861.861,0,0,1-.192.282l-3.326,3.235a.9.9,0,0,1-1.249,0,.842.842,0,0,1-.025-1.189l.027-.024,1.82-1.77h-5.351a.858.858,0,0,1,0-1.715h5.356l-1.825-1.772a.84.84,0,0,1-.025-1.188l.025-.025a.9.9,0,0,1,1.25,0l3.325,3.234a.859.859,0,0,1,.193.283l0,.012a.846.846,0,0,1,.063.313Zm0,0" transform="translate(-390.003 -226.069)" fill="#ff5656"/>
              </g>
            </g>
          </g>
        </g>
      </g>
    </g>
  </g>
</svg>
