<svg xmlns="http://www.w3.org/2000/svg" xmlns:xlink="http://www.w3.org/1999/xlink" width="40" height="40" viewBox="0 0 40 40">
  <defs>
    <clipPath id="clip-path">
      <rect id="矩形_100" data-name="矩形 100" width="40" height="40" transform="translate(542 441)" fill="none"/>
    </clipPath>
    <clipPath id="clip-path-2">
      <rect id="矩形_44" data-name="矩形 44" width="20.847" height="21.363" fill="#dbcff8"/>
    </clipPath>
    <clipPath id="clip-path-3">
      <path id="路径_77" data-name="路径 77" d="M483.379,115.681a13.532,13.532,0,0,0,9.1,12.962c9.6,3.537,13.972,4.561,20.466,15.248a19.134,19.134,0,0,1,0,20.124H472.855V115.681Z" transform="translate(-0.542 330.33)" fill="#b78dff" opacity="0.2"/>
    </clipPath>
    <clipPath id="clip-path-4">
      <rect id="矩形_44-2" data-name="矩形 44" width="20.847" height="21.363" fill="#b78dff"/>
    </clipPath>
    <clipPath id="clip-path-5">
      <path id="路径_76" data-name="路径 76" d="M483.379,115.681a13.532,13.532,0,0,0,9.1,12.962c9.6,3.537,13.972,4.561,20.466,15.248a19.134,19.134,0,0,1,0,20.124H472.855V115.681Z" transform="translate(-5.596 338.255)" fill="#8e4dfb" opacity="0.2"/>
    </clipPath>
    <clipPath id="clip-path-6">
      <rect id="矩形_44-3" data-name="矩形 44" width="20.847" height="21.363" fill="#8e4dfb"/>
    </clipPath>
  </defs>
  <g id="蒙版组_69" data-name="蒙版组 69" transform="translate(-542 -441)" clip-path="url(#clip-path)">
    <g id="组_196" data-name="组 196">
      <rect id="矩形_11" data-name="矩形 11" width="40" height="40" rx="5" transform="translate(542 441)" fill="#f2eff9"/>
      <g id="组_195" data-name="组 195">
        <g id="组_36" data-name="组 36" transform="translate(315 64.994)">
          <g id="组_35" data-name="组 35" transform="translate(237 385.006)">
            <g id="组_34" data-name="组 34" clip-path="url(#clip-path-2)">
              <path id="路径_24" data-name="路径 24" d="M257.209,402.71a4.141,4.141,0,0,0,1.684-3.331,4.034,4.034,0,1,0-8.06,0,4.116,4.116,0,0,0,1.692,3.331,6.792,6.792,0,0,0-3.707,5.573c0,.379.19.688.568.688h10.941c.369,0,.568-.3.568-.688a6.842,6.842,0,0,0-3.694-5.573Zm0,0" transform="translate(-240.064 -387.641)" fill="#dbcff8"/>
              <path id="路径_25" data-name="路径 25" d="M247.58,399.725a5.714,5.714,0,0,1-1.2-4.321,5.409,5.409,0,0,1,2.107-3.535,5.47,5.47,0,0,1,4.986-.658,3.891,3.891,0,0,1,1.684,1.156.668.668,0,0,0,.665-.678v-3.933c.078-1.936-.5-2.643-2.433-2.728H239.439c-1.936.085-2.51.792-2.433,2.728v15.586c-.078,1.936.5,2.641,2.433,2.726h3.615a.6.6,0,0,0,.68-.587,3.988,3.988,0,0,1,.4-1.516,9.337,9.337,0,0,1,1.441-2.349,9.54,9.54,0,0,1,2.008-1.895Zm-5.872-11.573H246.6a.473.473,0,0,1,.46.422.535.535,0,0,1-.453.627h-4.855a.469.469,0,0,1-.525-.491.5.5,0,0,1,.483-.528Zm-1.844-.129a.647.647,0,1,1,.006-.006Zm3.835,8.641h-4.026a.589.589,0,1,1,0-1.17H243.7a.589.589,0,1,1,0,1.17Zm1.353-3.315h-5.378c-.379,0-.678-.2-.665-.589a.615.615,0,0,1,.2-.444.6.6,0,0,1,.464-.146h5.378a.608.608,0,0,1,.665.59.593.593,0,0,1-.19.445.582.582,0,0,1-.466.144Zm0,0" transform="translate(-237 -385.011)" fill="#dbcff8"/>
            </g>
          </g>
        </g>
        <g id="蒙版组_29" data-name="蒙版组 29" transform="translate(70)" clip-path="url(#clip-path-3)">
          <g id="组_109" data-name="组 109" transform="translate(245 64.994)">
            <g id="组_35-2" data-name="组 35" transform="translate(237 385.006)">
              <g id="组_34-2" data-name="组 34" clip-path="url(#clip-path-4)">
                <path id="路径_24-2" data-name="路径 24" d="M257.209,402.71a4.141,4.141,0,0,0,1.684-3.331,4.034,4.034,0,1,0-8.06,0,4.116,4.116,0,0,0,1.692,3.331,6.792,6.792,0,0,0-3.707,5.573c0,.379.19.688.568.688h10.941c.369,0,.568-.3.568-.688a6.842,6.842,0,0,0-3.694-5.573Zm0,0" transform="translate(-240.064 -387.641)" fill="#b78dff"/>
                <path id="路径_25-2" data-name="路径 25" d="M247.58,399.725a5.714,5.714,0,0,1-1.2-4.321,5.409,5.409,0,0,1,2.107-3.535,5.47,5.47,0,0,1,4.986-.658,3.891,3.891,0,0,1,1.684,1.156.668.668,0,0,0,.665-.678v-3.933c.078-1.936-.5-2.643-2.433-2.728H239.439c-1.936.085-2.51.792-2.433,2.728v15.586c-.078,1.936.5,2.641,2.433,2.726h3.615a.6.6,0,0,0,.68-.587,3.988,3.988,0,0,1,.4-1.516,9.337,9.337,0,0,1,1.441-2.349,9.54,9.54,0,0,1,2.008-1.895Zm-5.872-11.573H246.6a.473.473,0,0,1,.46.422.535.535,0,0,1-.453.627h-4.855a.469.469,0,0,1-.525-.491.5.5,0,0,1,.483-.528Zm-1.844-.129a.647.647,0,1,1,.006-.006Zm3.835,8.641h-4.026a.589.589,0,1,1,0-1.17H243.7a.589.589,0,1,1,0,1.17Zm1.353-3.315h-5.378c-.379,0-.678-.2-.665-.589a.615.615,0,0,1,.2-.444.6.6,0,0,1,.464-.146h5.378a.608.608,0,0,1,.665.59.593.593,0,0,1-.19.445.582.582,0,0,1-.466.144Zm0,0" transform="translate(-237 -385.011)" fill="#b78dff"/>
              </g>
            </g>
          </g>
        </g>
        <g id="蒙版组_30" data-name="蒙版组 30" transform="translate(70)" clip-path="url(#clip-path-5)">
          <g id="组_110" data-name="组 110" transform="translate(245 64.994)">
            <g id="组_35-3" data-name="组 35" transform="translate(237 385.006)">
              <g id="组_34-3" data-name="组 34" clip-path="url(#clip-path-6)">
                <path id="路径_24-3" data-name="路径 24" d="M257.209,402.71a4.141,4.141,0,0,0,1.684-3.331,4.034,4.034,0,1,0-8.06,0,4.116,4.116,0,0,0,1.692,3.331,6.792,6.792,0,0,0-3.707,5.573c0,.379.19.688.568.688h10.941c.369,0,.568-.3.568-.688a6.842,6.842,0,0,0-3.694-5.573Zm0,0" transform="translate(-240.064 -387.641)" fill="#8e4dfb"/>
                <path id="路径_25-3" data-name="路径 25" d="M247.58,399.725a5.714,5.714,0,0,1-1.2-4.321,5.409,5.409,0,0,1,2.107-3.535,5.47,5.47,0,0,1,4.986-.658,3.891,3.891,0,0,1,1.684,1.156.668.668,0,0,0,.665-.678v-3.933c.078-1.936-.5-2.643-2.433-2.728H239.439c-1.936.085-2.51.792-2.433,2.728v15.586c-.078,1.936.5,2.641,2.433,2.726h3.615a.6.6,0,0,0,.68-.587,3.988,3.988,0,0,1,.4-1.516,9.337,9.337,0,0,1,1.441-2.349,9.54,9.54,0,0,1,2.008-1.895Zm-5.872-11.573H246.6a.473.473,0,0,1,.46.422.535.535,0,0,1-.453.627h-4.855a.469.469,0,0,1-.525-.491.5.5,0,0,1,.483-.528Zm-1.844-.129a.647.647,0,1,1,.006-.006Zm3.835,8.641h-4.026a.589.589,0,1,1,0-1.17H243.7a.589.589,0,1,1,0,1.17Zm1.353-3.315h-5.378c-.379,0-.678-.2-.665-.589a.615.615,0,0,1,.2-.444.6.6,0,0,1,.464-.146h5.378a.608.608,0,0,1,.665.59.593.593,0,0,1-.19.445.582.582,0,0,1-.466.144Zm0,0" transform="translate(-237 -385.011)" fill="#8e4dfb"/>
              </g>
            </g>
          </g>
        </g>
      </g>
    </g>
  </g>
</svg>
