<svg xmlns="http://www.w3.org/2000/svg" xmlns:xlink="http://www.w3.org/1999/xlink" width="40" height="40" viewBox="0 0 40 40"><defs><style>.a{fill:none;}.b,.h{fill:#ffab00;}.b{opacity:0.73;}.c,.j{fill:#ff8700;}.c{opacity:0.65;}.d{clip-path:url(#a);}.e{fill:#ffefe5;}.f{fill:#ffd000;}.g{clip-path:url(#b);}.i{clip-path:url(#c);}</style><clipPath id="a"><rect class="a" width="40" height="40" transform="translate(468 65)"/></clipPath><clipPath id="b"><path class="b" d="M483.379,115.681a13.532,13.532,0,0,0,9.1,12.962c9.6,3.537,13.972,4.561,20.466,15.248a19.134,19.134,0,0,1,0,20.124H472.855V115.681Z" transform="translate(-0.826 -43.146)"/></clipPath><clipPath id="c"><path class="c" d="M483.379,115.681a13.532,13.532,0,0,0,9.1,12.962c9.6,3.537,13.972,4.561,20.466,15.248a19.134,19.134,0,0,1,0,20.124H472.855V115.681Z" transform="translate(-2.539 -36.146)"/></clipPath></defs><g transform="translate(-680 -254)"><g class="d" transform="translate(212 189)"><g transform="translate(-2.317 -0.202)"><rect class="e" width="40" height="40" rx="5" transform="translate(470.317 65.202)"/><g transform="translate(-26 -46.004)"><path class="f" d="M36.79,498.738a1.863,1.863,0,0,0-1.373-.437l-9.654,2.686L16.11,498.3a1.809,1.809,0,0,0-1.319.448v10.658a1.874,1.874,0,0,0,1.437.437H35.353c.89,0,1.394-.32,1.437-.448Z" transform="translate(490.526 -367.149)"/><path class="f" d="M133.566,10.135v-8A2.14,2.14,0,0,0,131.417,0h-13.2a2.14,2.14,0,0,0-2.149,2.132v7.983l8.724,2.43ZM123.4,4.4h5.931a.533.533,0,1,1,0,1.066H123.4a.533.533,0,1,1,0-1.066Zm-2.525,4.178a.618.618,0,1,1,.623-.618A.621.621,0,0,1,120.877,8.579Zm0-3.027a.618.618,0,1,1,.623-.618.621.621,0,0,1-.623.618Zm1.988,2.409a.535.535,0,0,1,.537-.533h5.931a.533.533,0,1,1,0,1.066H123.4A.535.535,0,0,1,122.865,7.961Z" transform="translate(391.481 119.707)"/></g><g class="g"><g transform="translate(-26 -46.004)"><path class="h" d="M36.79,498.738a1.863,1.863,0,0,0-1.373-.437l-9.654,2.686L16.11,498.3a1.809,1.809,0,0,0-1.319.448v10.658a1.874,1.874,0,0,0,1.437.437H35.353c.89,0,1.394-.32,1.437-.448Z" transform="translate(490.526 -367.149)"/><path class="h" d="M133.566,10.135v-8A2.14,2.14,0,0,0,131.417,0h-13.2a2.14,2.14,0,0,0-2.149,2.132v7.983l8.724,2.43ZM123.4,4.4h5.931a.533.533,0,1,1,0,1.066H123.4a.533.533,0,1,1,0-1.066Zm-2.525,4.178a.618.618,0,1,1,.623-.618A.621.621,0,0,1,120.877,8.579Zm0-3.027a.618.618,0,1,1,.623-.618.621.621,0,0,1-.623.618Zm1.988,2.409a.535.535,0,0,1,.537-.533h5.931a.533.533,0,1,1,0,1.066H123.4A.535.535,0,0,1,122.865,7.961Z" transform="translate(391.481 119.707)"/></g></g><g class="i"><g transform="translate(-26 -46.004)"><path class="j" d="M36.79,498.738a1.863,1.863,0,0,0-1.373-.437l-9.654,2.686L16.11,498.3a1.809,1.809,0,0,0-1.319.448v10.658a1.874,1.874,0,0,0,1.437.437H35.353c.89,0,1.394-.32,1.437-.448Z" transform="translate(490.526 -367.149)"/><path class="j" d="M133.566,10.135v-8A2.14,2.14,0,0,0,131.417,0h-13.2a2.14,2.14,0,0,0-2.149,2.132v7.983l8.724,2.43ZM123.4,4.4h5.931a.533.533,0,1,1,0,1.066H123.4a.533.533,0,1,1,0-1.066Zm-2.525,4.178a.618.618,0,1,1,.623-.618A.621.621,0,0,1,120.877,8.579Zm0-3.027a.618.618,0,1,1,.623-.618.621.621,0,0,1-.623.618Zm1.988,2.409a.535.535,0,0,1,.537-.533h5.931a.533.533,0,1,1,0,1.066H123.4A.535.535,0,0,1,122.865,7.961Z" transform="translate(391.481 119.707)"/></g></g></g></g><rect class="a" width="40" height="40" transform="translate(680 254)"/></g></svg>
