<svg xmlns="http://www.w3.org/2000/svg" xmlns:xlink="http://www.w3.org/1999/xlink" width="40" height="40" viewBox="0 0 40 40">
  <defs>
    <clipPath id="clip-path">
      <rect id="矩形_101" data-name="矩形 101" width="40" height="40" transform="translate(618 441)" fill="none"/>
    </clipPath>
    <clipPath id="clip-path-2">
      <path id="路径_79" data-name="路径 79" d="M483.379,115.681a13.532,13.532,0,0,0,9.1,12.962c9.6,3.537,13.972,4.561,20.466,15.248a19.134,19.134,0,0,1,0,20.124H472.855V115.681Z" transform="translate(72.174 328.272)" fill="#b78dff" opacity="0.73"/>
    </clipPath>
    <clipPath id="clip-path-3">
      <path id="路径_78" data-name="路径 78" d="M483.379,115.681a13.532,13.532,0,0,0,9.1,12.962c9.6,3.537,13.972,4.561,20.466,15.248a19.134,19.134,0,0,1,0,20.124H472.855V115.681Z" transform="translate(74.88 316.025) rotate(2)" fill="#8e4dfb" opacity="0.65"/>
    </clipPath>
  </defs>
  <g id="蒙版组_70" data-name="蒙版组 70" transform="translate(-618 -441)" clip-path="url(#clip-path)">
    <g id="组_198" data-name="组 198">
      <rect id="矩形_12" data-name="矩形 12" width="40" height="40" rx="5" transform="translate(618 441)" fill="#f2eff9"/>
      <g id="组_197" data-name="组 197">
        <g id="组_37" data-name="组 37" transform="translate(316 67.989)">
          <path id="路径_26" data-name="路径 26" d="M328.842,383.011a2.52,2.52,0,0,1,2.517,2.378l0,.142V390.7a7.645,7.645,0,0,0-9.384,2.489h-4.933a.954.954,0,0,0-.1,1.9l.1.005h3.935a7.66,7.66,0,0,0-.1,4.78l-2.388,2a.63.63,0,0,1-.705.07l-.081-.053-2.973-2.269-2.743,1.893a.63.63,0,0,1-.983-.44l0-.079V385.531a2.52,2.52,0,0,1,2.377-2.516l.143,0h15.322Zm-3.525,5.091h-8.273a.954.954,0,0,0-.1,1.9l.1,0h8.273a.954.954,0,0,0,0-1.909Zm0,0" transform="translate(0 0)" fill="#dbcff8"/>
          <path id="路径_27" data-name="路径 27" d="M334.076,396.554a5.745,5.745,0,1,1-5.792,5.745,5.769,5.769,0,0,1,5.792-5.745Zm2.835,8.588a.957.957,0,0,0,0-1.354l-1.869-1.859v-2.453a.966.966,0,0,0-1.932,0v2.453a1.916,1.916,0,0,0,.567,1.354l1.869,1.858a.975.975,0,0,0,1.365,0Zm0,0" transform="translate(-5.959 -4.669)" fill="#dbcff8"/>
        </g>
        <g id="蒙版组_31" data-name="蒙版组 31" transform="translate(70)" clip-path="url(#clip-path-2)">
          <g id="组_111" data-name="组 111" transform="translate(246 67.989)">
            <path id="路径_26-2" data-name="路径 26" d="M328.842,383.011a2.52,2.52,0,0,1,2.517,2.378l0,.142V390.7a7.645,7.645,0,0,0-9.384,2.489h-4.933a.954.954,0,0,0-.1,1.9l.1.005h3.935a7.66,7.66,0,0,0-.1,4.78l-2.388,2a.63.63,0,0,1-.705.07l-.081-.053-2.973-2.269-2.743,1.893a.63.63,0,0,1-.983-.44l0-.079V385.531a2.52,2.52,0,0,1,2.377-2.516l.143,0h15.322Zm-3.525,5.091h-8.273a.954.954,0,0,0-.1,1.9l.1,0h8.273a.954.954,0,0,0,0-1.909Zm0,0" transform="translate(0 0)" fill="#b78dff"/>
            <path id="路径_27-2" data-name="路径 27" d="M334.076,396.554a5.745,5.745,0,1,1-5.792,5.745,5.769,5.769,0,0,1,5.792-5.745Zm2.835,8.588a.957.957,0,0,0,0-1.354l-1.869-1.859v-2.453a.966.966,0,0,0-1.932,0v2.453a1.916,1.916,0,0,0,.567,1.354l1.869,1.858a.975.975,0,0,0,1.365,0Zm0,0" transform="translate(-5.959 -4.669)" fill="#b78dff"/>
          </g>
        </g>
        <g id="蒙版组_32" data-name="蒙版组 32" transform="translate(70)" clip-path="url(#clip-path-3)">
          <g id="组_112" data-name="组 112" transform="translate(246 67.989)">
            <path id="路径_26-3" data-name="路径 26" d="M328.842,383.011a2.52,2.52,0,0,1,2.517,2.378l0,.142V390.7a7.645,7.645,0,0,0-9.384,2.489h-4.933a.954.954,0,0,0-.1,1.9l.1.005h3.935a7.66,7.66,0,0,0-.1,4.78l-2.388,2a.63.63,0,0,1-.705.07l-.081-.053-2.973-2.269-2.743,1.893a.63.63,0,0,1-.983-.44l0-.079V385.531a2.52,2.52,0,0,1,2.377-2.516l.143,0h15.322Zm-3.525,5.091h-8.273a.954.954,0,0,0-.1,1.9l.1,0h8.273a.954.954,0,0,0,0-1.909Zm0,0" transform="translate(0 0)" fill="#8e4dfb"/>
            <path id="路径_27-3" data-name="路径 27" d="M334.076,396.554a5.745,5.745,0,1,1-5.792,5.745,5.769,5.769,0,0,1,5.792-5.745Zm2.835,8.588a.957.957,0,0,0,0-1.354l-1.869-1.859v-2.453a.966.966,0,0,0-1.932,0v2.453a1.916,1.916,0,0,0,.567,1.354l1.869,1.858a.975.975,0,0,0,1.365,0Zm0,0" transform="translate(-5.959 -4.669)" fill="#8e4dfb"/>
          </g>
        </g>
      </g>
    </g>
  </g>
</svg>
