<svg xmlns="http://www.w3.org/2000/svg" xmlns:xlink="http://www.w3.org/1999/xlink" width="40" height="40" viewBox="0 0 40 40">
  <defs>
    <clipPath id="clip-path">
      <rect id="矩形_103" data-name="矩形 103" width="40" height="40" transform="translate(384 625)" fill="none"/>
    </clipPath>
    <clipPath id="clip-path-2">
      <path id="路径_82" data-name="路径 82" d="M483.379,115.681a13.532,13.532,0,0,0,9.1,12.962c9.6,3.537,13.972,4.561,20.466,15.248a19.134,19.134,0,0,1,0,20.124H472.855V115.681Z" transform="translate(-160.304 513.313)" fill="#9097ff" opacity="0.73"/>
    </clipPath>
    <clipPath id="clip-path-3">
      <path id="路径_83" data-name="路径 83" d="M483.379,115.681a13.532,13.532,0,0,0,9.1,12.962c9.6,3.537,13.972,4.561,20.466,15.248a19.134,19.134,0,0,1,0,20.124H472.855V115.681Z" transform="translate(-161.826 522.473)" fill="#6670ff" opacity="0.65"/>
    </clipPath>
  </defs>
  <g id="蒙版组_72" data-name="蒙版组 72" transform="translate(-384 -625)" clip-path="url(#clip-path)">
    <g id="组_203" data-name="组 203">
      <rect id="矩形_22" data-name="矩形 22" width="40" height="40" rx="5" transform="translate(384 625)" fill="#f2f3ff"/>
      <g id="组_202" data-name="组 202">
        <g id="组_19" data-name="组 19" transform="translate(314 64.973)">
          <path id="路径_12" data-name="路径 12" d="M82.151,571.89a.932.932,0,1,1,0-1.863H97.914a.932.932,0,1,1,0,1.863H82.151Zm13.382,8.523a3.029,3.029,0,0,0,3.624,1.687v6.007a1.394,1.394,0,0,1-1.2,1.24H82.1a1.393,1.393,0,0,1-1.2-1.24V582.1a3.043,3.043,0,0,0,.852.121,2.986,2.986,0,0,0,2.772-1.81,2.957,2.957,0,0,0,2.744,1.81,2.99,2.99,0,0,0,2.772-1.81,2.984,2.984,0,0,0,5.486,0Zm3.577-7.7,1.962,4.871a2.778,2.778,0,0,1-5.552,0,2.744,2.744,0,0,1-5.485,0,2.76,2.76,0,0,1-5.517,0,2.761,2.761,0,0,1-5.518,0l1.89-4.873Zm0,0" fill="#d0d3ff"/>
        </g>
        <g id="蒙版组_37" data-name="蒙版组 37" transform="translate(70)" clip-path="url(#clip-path-2)">
          <g id="组_117" data-name="组 117" transform="translate(244 64.973)">
            <path id="路径_12-2" data-name="路径 12" d="M82.151,571.89a.932.932,0,1,1,0-1.863H97.914a.932.932,0,1,1,0,1.863H82.151Zm13.382,8.523a3.029,3.029,0,0,0,3.624,1.687v6.007a1.394,1.394,0,0,1-1.2,1.24H82.1a1.393,1.393,0,0,1-1.2-1.24V582.1a3.043,3.043,0,0,0,.852.121,2.986,2.986,0,0,0,2.772-1.81,2.957,2.957,0,0,0,2.744,1.81,2.99,2.99,0,0,0,2.772-1.81,2.984,2.984,0,0,0,5.486,0Zm3.577-7.7,1.962,4.871a2.778,2.778,0,0,1-5.552,0,2.744,2.744,0,0,1-5.485,0,2.76,2.76,0,0,1-5.517,0,2.761,2.761,0,0,1-5.518,0l1.89-4.873Zm0,0" fill="#9097ff"/>
          </g>
        </g>
        <g id="蒙版组_38" data-name="蒙版组 38" transform="translate(70)" clip-path="url(#clip-path-3)">
          <g id="组_118" data-name="组 118" transform="translate(244 64.973)">
            <path id="路径_12-3" data-name="路径 12" d="M82.151,571.89a.932.932,0,1,1,0-1.863H97.914a.932.932,0,1,1,0,1.863H82.151Zm13.382,8.523a3.029,3.029,0,0,0,3.624,1.687v6.007a1.394,1.394,0,0,1-1.2,1.24H82.1a1.393,1.393,0,0,1-1.2-1.24V582.1a3.043,3.043,0,0,0,.852.121,2.986,2.986,0,0,0,2.772-1.81,2.957,2.957,0,0,0,2.744,1.81,2.99,2.99,0,0,0,2.772-1.81,2.984,2.984,0,0,0,5.486,0Zm3.577-7.7,1.962,4.871a2.778,2.778,0,0,1-5.552,0,2.744,2.744,0,0,1-5.485,0,2.76,2.76,0,0,1-5.517,0,2.761,2.761,0,0,1-5.518,0l1.89-4.873Zm0,0" fill="#6670ff"/>
          </g>
        </g>
      </g>
    </g>
  </g>
</svg>
