<svg xmlns="http://www.w3.org/2000/svg" xmlns:xlink="http://www.w3.org/1999/xlink" width="40" height="40" viewBox="0 0 40 40"><defs><style>.a{fill:none;}.b,.h{fill:#ffe13e;}.b{opacity:0.73;}.c,.j{fill:#ffd800;}.c{opacity:0.65;}.d{clip-path:url(#a);}.e{fill:#fff9d5;}.f{fill:#ffea7c;}.g{clip-path:url(#b);}.i{clip-path:url(#c);}</style><clipPath id="a"><rect class="a" width="40" height="40" transform="translate(894 392)"/></clipPath><clipPath id="b"><path class="b" d="M483.379,115.681a13.532,13.532,0,0,0,9.1,12.962c9.6,3.537,13.972,4.561,20.466,15.248a19.134,19.134,0,0,1,0,20.124H472.855V115.681Z" transform="translate(408.87 361.475) rotate(-9)"/></clipPath><clipPath id="c"><path class="c" d="M483.379,115.681a13.532,13.532,0,0,0,9.1,12.962c9.6,3.537,13.972,4.561,20.466,15.248a19.134,19.134,0,0,1,0,20.124H472.855V115.681Z" transform="translate(467.184 165.442) rotate(15)"/></clipPath></defs><g transform="translate(-894 -392)"><g class="d"><rect class="e" width="40" height="40" rx="5" transform="translate(894 392)"/><path class="f" d="M55.244,15.488a2.188,2.188,0,0,1,2.245,2.127v4.821h3.866A2.188,2.188,0,0,1,63.6,24.563v10.8a2.188,2.188,0,0,1-2.245,2.127h-11.4a2.188,2.188,0,0,1-2.245-2.127V30.54H43.845A2.188,2.188,0,0,1,41.6,28.413v-10.8a2.188,2.188,0,0,1,2.245-2.127h11.4Zm3.438,11.647H53.889a.584.584,0,0,0-.6.567v4.54a.426.426,0,0,0,.277.393.467.467,0,0,0,.489-.092l1.82-1.724,2.357,2.233a.467.467,0,0,0,.635,0l.727-.688a.41.41,0,0,0,0-.6l-2.357-2.233L59,27.861a.409.409,0,0,0,.1-.463A.45.45,0,0,0,58.682,27.135ZM46.351,19.271a.467.467,0,0,0-.635,0l-.726.688a.41.41,0,0,0,0,.6l2.357,2.233-1.762,1.667a.409.409,0,0,0-.1.463.45.45,0,0,0,.414.263H50.7a.584.584,0,0,0,.6-.567v-4.54a.426.426,0,0,0-.277-.393.467.467,0,0,0-.489.092L48.709,21.5Z" transform="translate(861.4 385.512)"/><g class="g" transform="translate(0 -1)"><path class="h" d="M55.244,15.488a2.188,2.188,0,0,1,2.245,2.127v4.821h3.866A2.188,2.188,0,0,1,63.6,24.563v10.8a2.188,2.188,0,0,1-2.245,2.127h-11.4a2.188,2.188,0,0,1-2.245-2.127V30.54H43.845A2.188,2.188,0,0,1,41.6,28.413v-10.8a2.188,2.188,0,0,1,2.245-2.127h11.4Zm3.438,11.647H53.889a.584.584,0,0,0-.6.567v4.54a.426.426,0,0,0,.277.393.467.467,0,0,0,.489-.092l1.82-1.724,2.357,2.233a.467.467,0,0,0,.635,0l.727-.688a.41.41,0,0,0,0-.6l-2.357-2.233L59,27.861a.409.409,0,0,0,.1-.463A.45.45,0,0,0,58.682,27.135ZM46.351,19.271a.467.467,0,0,0-.635,0l-.726.688a.41.41,0,0,0,0,.6l2.357,2.233-1.762,1.667a.409.409,0,0,0-.1.463.45.45,0,0,0,.414.263H50.7a.584.584,0,0,0,.6-.567v-4.54a.426.426,0,0,0-.277-.393.467.467,0,0,0-.489.092L48.709,21.5Z" transform="translate(861.4 386.512)"/></g><g class="i" transform="translate(0 -1)"><path class="j" d="M55.244,15.488a2.188,2.188,0,0,1,2.245,2.127v4.821h3.866A2.188,2.188,0,0,1,63.6,24.563v10.8a2.188,2.188,0,0,1-2.245,2.127h-11.4a2.188,2.188,0,0,1-2.245-2.127V30.54H43.845A2.188,2.188,0,0,1,41.6,28.413v-10.8a2.188,2.188,0,0,1,2.245-2.127h11.4Zm3.438,11.647H53.889a.584.584,0,0,0-.6.567v4.54a.426.426,0,0,0,.277.393.467.467,0,0,0,.489-.092l1.82-1.724,2.357,2.233a.467.467,0,0,0,.635,0l.727-.688a.41.41,0,0,0,0-.6l-2.357-2.233L59,27.861a.409.409,0,0,0,.1-.463A.45.45,0,0,0,58.682,27.135ZM46.351,19.271a.467.467,0,0,0-.635,0l-.726.688a.41.41,0,0,0,0,.6l2.357,2.233-1.762,1.667a.409.409,0,0,0-.1.463.45.45,0,0,0,.414.263H50.7a.584.584,0,0,0,.6-.567v-4.54a.426.426,0,0,0-.277-.393.467.467,0,0,0-.489.092L48.709,21.5Z" transform="translate(861.4 386.512)"/></g></g><rect class="a" width="40" height="40" transform="translate(894 392)"/></g></svg>