<svg xmlns="http://www.w3.org/2000/svg" xmlns:xlink="http://www.w3.org/1999/xlink" width="40" height="40" viewBox="0 0 40 40">
  <defs>
    <clipPath id="clip-path">
      <rect id="矩形_113" data-name="矩形 113" width="40" height="40" transform="translate(387 353)" fill="none"/>
    </clipPath>
    <clipPath id="clip-path-2">
      <rect id="矩形_110" data-name="矩形 110" width="22" height="24" transform="translate(0.416 -0.005)" fill="#c1e5c4"/>
    </clipPath>
    <clipPath id="clip-path-3">
      <path id="路径_117" data-name="路径 117" d="M557.642,117.291s.9,7.67,10.3,11.32,12.474,13.269,13.718,22.129-38.769.79-38.769.79Z" transform="matrix(0.966, 0.259, -0.259, 0.966, -488.511, -261.29)" fill="#83de89"/>
    </clipPath>
    <clipPath id="clip-path-4">
      <rect id="矩形_111" data-name="矩形 111" width="22" height="24" transform="translate(0.416 -0.005)" fill="#83de89"/>
    </clipPath>
    <clipPath id="clip-path-5">
      <path id="路径_120" data-name="路径 120" d="M17.468,0S21.285,9.432,27,12.441s12,6.725,15.585,21.4S0,33.843,0,33.843Z" transform="matrix(0.995, -0.105, 0.105, 0.995, 0, 4.472)" fill="#26db31" opacity="0.16"/>
    </clipPath>
    <clipPath id="clip-path-6">
      <rect id="矩形_112" data-name="矩形 112" width="22" height="24" transform="translate(0.416 -0.005)" fill="#26db31"/>
    </clipPath>
  </defs>
  <g id="蒙版组_80" data-name="蒙版组 80" transform="translate(-387 -353)" clip-path="url(#clip-path)">
    <g id="组_233" data-name="组 233">
      <rect id="矩形_109" data-name="矩形 109" width="40" height="40" rx="5" transform="translate(387 353)" fill="#ecf9ed"/>
      <g id="组_232" data-name="组 232" transform="translate(-0.37)">
        <g id="组_219" data-name="组 219" transform="translate(397.576 362.127)">
          <g id="组_217" data-name="组 217" transform="translate(0 0)">
            <g id="组_216" data-name="组 216">
              <g id="组_215" data-name="组 215" clip-path="url(#clip-path-2)">
                <path id="路径_113" data-name="路径 113" d="M342.186,79.63a1.6,1.6,0,0,1,.418.764.688.688,0,0,1-.25.6.507.507,0,0,1-.419.191,1.784,1.784,0,0,1-.53-.082,3.306,3.306,0,0,1-.53-.273c-.167-.109-.306-.219-.445-.328l-1.9-1.665a5.752,5.752,0,0,1-1.59.655,5.126,5.126,0,0,1-1.7.136,4.424,4.424,0,0,1-1.645-.409,4.761,4.761,0,0,1-1.451-1.01A4.848,4.848,0,0,1,331,76.545a4.871,4.871,0,0,1,0-3.822,4.841,4.841,0,0,1,1.143-1.665,4.6,4.6,0,0,1,1.673-1.12,5.265,5.265,0,0,1,1.924-.382,5.384,5.384,0,0,1,1.925.382,4.953,4.953,0,0,1,1.7,1.12,4.8,4.8,0,0,1,1,1.474,4.468,4.468,0,0,1,.418,1.665,4.976,4.976,0,0,1-.139,1.692,4.9,4.9,0,0,1-.669,1.556l1.031,1.01c.279.273.53.519.753.764a2.8,2.8,0,0,1,.418.409Zm-6.413-1.638a3.043,3.043,0,0,0,1.31-.274,2.933,2.933,0,0,0,1.088-.737,3.014,3.014,0,0,0,.725-1.092,3.471,3.471,0,0,0,.279-1.338,2.994,2.994,0,0,0-.279-1.31,3.151,3.151,0,0,0-.725-1.065,3.8,3.8,0,0,0-1.088-.737,3.618,3.618,0,0,0-1.31-.273,3.044,3.044,0,0,0-1.311.273,2.935,2.935,0,0,0-1.088.737,3.164,3.164,0,0,0-.725,1.065,3.458,3.458,0,0,0-.279,1.31,3.116,3.116,0,0,0,.279,1.338,3.582,3.582,0,0,0,.725,1.092,3.8,3.8,0,0,0,1.088.737,2.961,2.961,0,0,0,1.311.274Zm0,0" transform="translate(-320.091 -57.67)" fill="#c1e5c4"/>
              </g>
            </g>
            <path id="路径_114" data-name="路径 114" d="M322.133,59.883a4.8,4.8,0,0,0,2.747,4.22,6.11,6.11,0,0,0,5.493,0,4.8,4.8,0,0,0,2.747-4.22c0-2.69-2.46-4.872-5.494-4.872s-5.493,2.182-5.493,4.872Zm7.611,12.191a5.065,5.065,0,0,1,5.292-4.8,5.757,5.757,0,0,1,.655.046A6.394,6.394,0,0,0,331,65.372h-.63l-2.747,7.914-2.746-7.914h-.631A5.981,5.981,0,0,0,318,71.045v4.071h12.9a4.756,4.756,0,0,1-1.159-3.042Zm0,0" transform="translate(-318 -55.004)" fill="#c1e5c4"/>
          </g>
        </g>
        <g id="蒙版组_78" data-name="蒙版组 78" transform="translate(382.111 360.484)" clip-path="url(#clip-path-3)">
          <g id="组_225" data-name="组 225" transform="translate(15.464 1.643)">
            <g id="组_223" data-name="组 223" transform="translate(0 0)">
              <g id="组_222" data-name="组 222">
                <g id="组_221" data-name="组 221" clip-path="url(#clip-path-4)">
                  <path id="路径_115" data-name="路径 115" d="M342.186,79.63a1.6,1.6,0,0,1,.418.764.688.688,0,0,1-.25.6.507.507,0,0,1-.419.191,1.784,1.784,0,0,1-.53-.082,3.306,3.306,0,0,1-.53-.273c-.167-.109-.306-.219-.445-.328l-1.9-1.665a5.752,5.752,0,0,1-1.59.655,5.126,5.126,0,0,1-1.7.136,4.424,4.424,0,0,1-1.645-.409,4.761,4.761,0,0,1-1.451-1.01A4.848,4.848,0,0,1,331,76.545a4.871,4.871,0,0,1,0-3.822,4.841,4.841,0,0,1,1.143-1.665,4.6,4.6,0,0,1,1.673-1.12,5.265,5.265,0,0,1,1.924-.382,5.384,5.384,0,0,1,1.925.382,4.953,4.953,0,0,1,1.7,1.12,4.8,4.8,0,0,1,1,1.474,4.468,4.468,0,0,1,.418,1.665,4.976,4.976,0,0,1-.139,1.692,4.9,4.9,0,0,1-.669,1.556l1.031,1.01c.279.273.53.519.753.764a2.8,2.8,0,0,1,.418.409Zm-6.413-1.638a3.043,3.043,0,0,0,1.31-.274,2.933,2.933,0,0,0,1.088-.737,3.014,3.014,0,0,0,.725-1.092,3.471,3.471,0,0,0,.279-1.338,2.994,2.994,0,0,0-.279-1.31,3.151,3.151,0,0,0-.725-1.065,3.8,3.8,0,0,0-1.088-.737,3.618,3.618,0,0,0-1.31-.273,3.044,3.044,0,0,0-1.311.273,2.935,2.935,0,0,0-1.088.737,3.164,3.164,0,0,0-.725,1.065,3.458,3.458,0,0,0-.279,1.31,3.116,3.116,0,0,0,.279,1.338,3.582,3.582,0,0,0,.725,1.092,3.8,3.8,0,0,0,1.088.737,2.961,2.961,0,0,0,1.311.274Zm0,0" transform="translate(-320.091 -57.67)" fill="#83de89"/>
                </g>
              </g>
              <path id="路径_116" data-name="路径 116" d="M322.133,59.883a4.8,4.8,0,0,0,2.747,4.22,6.11,6.11,0,0,0,5.493,0,4.8,4.8,0,0,0,2.747-4.22c0-2.69-2.46-4.872-5.494-4.872s-5.493,2.182-5.493,4.872Zm7.611,12.191a5.065,5.065,0,0,1,5.292-4.8,5.757,5.757,0,0,1,.655.046A6.394,6.394,0,0,0,331,65.372h-.63l-2.747,7.914-2.746-7.914h-.631A5.981,5.981,0,0,0,318,71.045v4.071h12.9a4.756,4.756,0,0,1-1.159-3.042Zm0,0" transform="translate(-318 -55.004)" fill="#83de89"/>
            </g>
          </g>
        </g>
        <g id="蒙版组_79" data-name="蒙版组 79" transform="translate(372.37 360.484)" clip-path="url(#clip-path-5)">
          <g id="组_231" data-name="组 231" transform="translate(25.205 1.643)">
            <g id="组_229" data-name="组 229" transform="translate(0 0)">
              <g id="组_228" data-name="组 228">
                <g id="组_227" data-name="组 227" clip-path="url(#clip-path-6)">
                  <path id="路径_118" data-name="路径 118" d="M342.186,79.63a1.6,1.6,0,0,1,.418.764.688.688,0,0,1-.25.6.507.507,0,0,1-.419.191,1.784,1.784,0,0,1-.53-.082,3.306,3.306,0,0,1-.53-.273c-.167-.109-.306-.219-.445-.328l-1.9-1.665a5.752,5.752,0,0,1-1.59.655,5.126,5.126,0,0,1-1.7.136,4.424,4.424,0,0,1-1.645-.409,4.761,4.761,0,0,1-1.451-1.01A4.848,4.848,0,0,1,331,76.545a4.871,4.871,0,0,1,0-3.822,4.841,4.841,0,0,1,1.143-1.665,4.6,4.6,0,0,1,1.673-1.12,5.265,5.265,0,0,1,1.924-.382,5.384,5.384,0,0,1,1.925.382,4.953,4.953,0,0,1,1.7,1.12,4.8,4.8,0,0,1,1,1.474,4.468,4.468,0,0,1,.418,1.665,4.976,4.976,0,0,1-.139,1.692,4.9,4.9,0,0,1-.669,1.556l1.031,1.01c.279.273.53.519.753.764a2.8,2.8,0,0,1,.418.409Zm-6.413-1.638a3.043,3.043,0,0,0,1.31-.274,2.933,2.933,0,0,0,1.088-.737,3.014,3.014,0,0,0,.725-1.092,3.471,3.471,0,0,0,.279-1.338,2.994,2.994,0,0,0-.279-1.31,3.151,3.151,0,0,0-.725-1.065,3.8,3.8,0,0,0-1.088-.737,3.618,3.618,0,0,0-1.31-.273,3.044,3.044,0,0,0-1.311.273,2.935,2.935,0,0,0-1.088.737,3.164,3.164,0,0,0-.725,1.065,3.458,3.458,0,0,0-.279,1.31,3.116,3.116,0,0,0,.279,1.338,3.582,3.582,0,0,0,.725,1.092,3.8,3.8,0,0,0,1.088.737,2.961,2.961,0,0,0,1.311.274Zm0,0" transform="translate(-320.091 -57.67)" fill="#26db31"/>
                </g>
              </g>
              <path id="路径_119" data-name="路径 119" d="M322.133,59.883a4.8,4.8,0,0,0,2.747,4.22,6.11,6.11,0,0,0,5.493,0,4.8,4.8,0,0,0,2.747-4.22c0-2.69-2.46-4.872-5.494-4.872s-5.493,2.182-5.493,4.872Zm7.611,12.191a5.065,5.065,0,0,1,5.292-4.8,5.757,5.757,0,0,1,.655.046A6.394,6.394,0,0,0,331,65.372h-.63l-2.747,7.914-2.746-7.914h-.631A5.981,5.981,0,0,0,318,71.045v4.071h12.9a4.756,4.756,0,0,1-1.159-3.042Zm0,0" transform="translate(-318 -55.004)" fill="#26db31"/>
            </g>
          </g>
        </g>
      </g>
    </g>
  </g>
</svg>
