<svg xmlns="http://www.w3.org/2000/svg" xmlns:xlink="http://www.w3.org/1999/xlink" width="40" height="40" viewBox="0 0 40 40"><defs><style>.a{fill:#ffc8c8;}.b{fill:#ffebeb;}.c{clip-path:url(#a);}.d{fill:#ff8989;opacity:0.73;}.e{fill:#ff5656;opacity:0.65;}.f{fill:none;}</style><clipPath id="a"><path class="a" d="M95.474,199.716v-.47c.293-.126,1.381.419,1.381.419l.419-.419c-.67-1.507-4.6-1.976-4.6-1.976l-2.344-6.228h2.553v-2.6H89.447L87.9,190.288l-2.644.586.258.753,2.763-.419c.335.335,1.172,6.782,1.172,6.782a6.751,6.751,0,0,0-1.884,2.552H85.052c-1.172-.963-1.13-3.273-1.13-3.273H74.337a9.192,9.192,0,0,1-1.046,3.19,2.963,2.963,0,0,1,1.261.86,3.768,3.768,0,1,0,7.1,2.363h8.167a3.767,3.767,0,1,0,5.659-3.966Zm-17.517,4.615a1.4,1.4,0,1,1,1.4-1.4A1.4,1.4,0,0,1,77.957,204.331Zm15.55,0a1.4,1.4,0,1,1,1.4-1.4A1.4,1.4,0,0,1,93.507,204.331ZM83.8,195.221a.4.4,0,0,1-.4.4H74.86a.4.4,0,0,1-.4-.4h0a.4.4,0,0,1,.4-.4H83.4a.4.4,0,0,1,.4.4Z" transform="translate(-73.29 -188.447)"/></clipPath></defs><g transform="translate(-1184 -601)"><rect class="b" width="40" height="40" rx="5" transform="translate(1184 601)"/><g transform="translate(1 1)"><path class="a" d="M95.474,199.716v-.47c.293-.126,1.381.419,1.381.419l.419-.419c-.67-1.507-4.6-1.976-4.6-1.976l-2.344-6.228h2.553v-2.6H89.447L87.9,190.288l-2.644.586.258.753,2.763-.419c.335.335,1.172,6.782,1.172,6.782a6.751,6.751,0,0,0-1.884,2.552H85.052c-1.172-.963-1.13-3.273-1.13-3.273H74.337a9.192,9.192,0,0,1-1.046,3.19,2.963,2.963,0,0,1,1.261.86,3.768,3.768,0,1,0,7.1,2.363h8.167a3.767,3.767,0,1,0,5.659-3.966Zm-17.517,4.615a1.4,1.4,0,1,1,1.4-1.4A1.4,1.4,0,0,1,77.957,204.331Zm15.55,0a1.4,1.4,0,1,1,1.4-1.4A1.4,1.4,0,0,1,93.507,204.331ZM83.8,195.221a.4.4,0,0,1-.4.4H74.86a.4.4,0,0,1-.4-.4h0a.4.4,0,0,1,.4-.4H83.4a.4.4,0,0,1,.4.4Z" transform="translate(1117.71 422.553)"/><g class="c" transform="translate(1191 611)"><path class="d" d="M10.059,0a12.934,12.934,0,0,0,8.694,12.389c9.177,3.381,13.355,4.359,19.562,14.575a18.289,18.289,0,0,1,0,19.236H0V0Z" transform="translate(-10.516 -1.353) rotate(-9)"/></g><g class="c" transform="translate(1191 611)"><path class="e" d="M10.059,0a12.934,12.934,0,0,0,8.694,12.389c9.177,3.381,13.355,4.359,19.562,14.575a18.289,18.289,0,0,1,0,19.236H0V0Z" transform="translate(-7.826 4.183) rotate(-11)"/></g></g><rect class="f" width="40" height="40" transform="translate(1184 601)"/></g></svg>