<svg xmlns="http://www.w3.org/2000/svg" xmlns:xlink="http://www.w3.org/1999/xlink" width="40" height="40" viewBox="0 0 40 40">
  <defs>
    <clipPath id="clip-path">
      <rect id="矩形_99" data-name="矩形 99" width="40" height="40" transform="translate(460 441)" fill="none"/>
    </clipPath>
    <clipPath id="clip-path-2">
      <path id="路径_74" data-name="路径 74" d="M483.379,115.681a13.532,13.532,0,0,0,9.1,12.962c9.6,3.537,13.972,4.561,20.466,15.248a19.134,19.134,0,0,1,0,20.124H472.855V115.681Z" transform="translate(-86.855 328.272)" fill="#b78dff" opacity="0.2"/>
    </clipPath>
    <clipPath id="clip-path-3">
      <path id="路径_75" data-name="路径 75" d="M483.379,115.681a13.532,13.532,0,0,0,9.1,12.962c9.6,3.537,13.972,4.561,20.466,15.248a19.134,19.134,0,0,1,0,20.124H472.855V115.681Z" transform="translate(-83.89 339.297)" fill="#8e4dfb" opacity="0.2"/>
    </clipPath>
  </defs>
  <g id="蒙版组_68" data-name="蒙版组 68" transform="translate(-460 -441)" clip-path="url(#clip-path)">
    <g id="组_194" data-name="组 194">
      <rect id="矩形_8" data-name="矩形 8" width="40" height="40" rx="5" transform="translate(460 441)" fill="#f2eff9"/>
      <g id="组_193" data-name="组 193">
        <path id="特殊积分-面型" d="M161.612,113.757a1.541,1.541,0,0,1,1.54,1.542v9.109a9.5,9.5,0,0,0-3.5-.621c-3.27,0-6.051,1.419-6.051,3.6a2.486,2.486,0,0,0,.3,1.181,2.652,2.652,0,0,0,.025,2.493,2.691,2.691,0,0,0-.324,1.271,3.469,3.469,0,0,0,2.237,2.994H146.2a1.54,1.54,0,0,1-1.54-1.542V115.3a1.541,1.541,0,0,1,1.54-1.542Zm2.685,17.592a1.706,1.706,0,0,1,.4,1.061c0,1.45-2.105,2.636-4.756,2.716l-.286,0c-2.786,0-5.042-1.218-5.042-2.72a1.578,1.578,0,0,1,.04-.353l.063-.2a1.934,1.934,0,0,1,.295-.512c.766.974,2.558,1.659,4.644,1.659s3.877-.684,4.644-1.659Zm-.029-2.647a1.7,1.7,0,0,1,.429,1.088l-.008.154-.025.151c-.28,1.343-2.415,2.389-5.009,2.389-2.676,0-4.866-1.113-5.032-2.521a1.467,1.467,0,0,1,.023-.479l.049-.179a1.924,1.924,0,0,1,.347-.6,7.435,7.435,0,0,0,9.227,0Zm-4.614-3.908.286,0,.282.013c2.517.141,4.474,1.209,4.474,2.5a1.256,1.256,0,0,1-.013.182l-.026.134c-.2.776-1.105,1.471-2.482,1.868a9.584,9.584,0,0,1-5.042,0c-1.561-.45-2.521-1.282-2.521-2.183,0-1.393,2.256-2.521,5.042-2.521Zm-8.057-.252h-3.081a.831.831,0,0,0-.77.882.854.854,0,0,0,.655.872l.113.01H151.6a.891.891,0,0,0,0-1.765Zm3.082-3.081h-6.164a.831.831,0,0,0-.769.882.854.854,0,0,0,.655.872l.113.01h6.164a.891.891,0,0,0,0-1.765Zm3.081-3.082h-9.244a.832.832,0,0,0-.77.882.854.854,0,0,0,.655.874l.113.009h9.245a.891.891,0,0,0,0-1.765Z" transform="translate(325.337 336.243)" fill="#dbcff8"/>
        <g id="蒙版组_27" data-name="蒙版组 27" transform="translate(70)" clip-path="url(#clip-path-2)">
          <path id="特殊积分-面型-2" data-name="特殊积分-面型" d="M161.612,113.757a1.541,1.541,0,0,1,1.54,1.542v9.109a9.5,9.5,0,0,0-3.5-.621c-3.27,0-6.051,1.419-6.051,3.6a2.486,2.486,0,0,0,.3,1.181,2.652,2.652,0,0,0,.025,2.493,2.691,2.691,0,0,0-.324,1.271,3.469,3.469,0,0,0,2.237,2.994H146.2a1.54,1.54,0,0,1-1.54-1.542V115.3a1.541,1.541,0,0,1,1.54-1.542Zm2.685,17.592a1.706,1.706,0,0,1,.4,1.061c0,1.45-2.105,2.636-4.756,2.716l-.286,0c-2.786,0-5.042-1.218-5.042-2.72a1.578,1.578,0,0,1,.04-.353l.063-.2a1.934,1.934,0,0,1,.295-.512c.766.974,2.558,1.659,4.644,1.659s3.877-.684,4.644-1.659Zm-.029-2.647a1.7,1.7,0,0,1,.429,1.088l-.008.154-.025.151c-.28,1.343-2.415,2.389-5.009,2.389-2.676,0-4.866-1.113-5.032-2.521a1.467,1.467,0,0,1,.023-.479l.049-.179a1.924,1.924,0,0,1,.347-.6,7.435,7.435,0,0,0,9.227,0Zm-4.614-3.908.286,0,.282.013c2.517.141,4.474,1.209,4.474,2.5a1.256,1.256,0,0,1-.013.182l-.026.134c-.2.776-1.105,1.471-2.482,1.868a9.584,9.584,0,0,1-5.042,0c-1.561-.45-2.521-1.282-2.521-2.183,0-1.393,2.256-2.521,5.042-2.521Zm-8.057-.252h-3.081a.831.831,0,0,0-.77.882.854.854,0,0,0,.655.872l.113.01H151.6a.891.891,0,0,0,0-1.765Zm3.082-3.081h-6.164a.831.831,0,0,0-.769.882.854.854,0,0,0,.655.872l.113.01h6.164a.891.891,0,0,0,0-1.765Zm3.081-3.082h-9.244a.832.832,0,0,0-.77.882.854.854,0,0,0,.655.874l.113.009h9.245a.891.891,0,0,0,0-1.765Z" transform="translate(255.337 336.243)" fill="#b78dff"/>
        </g>
        <g id="蒙版组_28" data-name="蒙版组 28" transform="translate(70)" clip-path="url(#clip-path-3)">
          <path id="特殊积分-面型-3" data-name="特殊积分-面型" d="M161.612,113.757a1.541,1.541,0,0,1,1.54,1.542v9.109a9.5,9.5,0,0,0-3.5-.621c-3.27,0-6.051,1.419-6.051,3.6a2.486,2.486,0,0,0,.3,1.181,2.652,2.652,0,0,0,.025,2.493,2.691,2.691,0,0,0-.324,1.271,3.469,3.469,0,0,0,2.237,2.994H146.2a1.54,1.54,0,0,1-1.54-1.542V115.3a1.541,1.541,0,0,1,1.54-1.542Zm2.685,17.592a1.706,1.706,0,0,1,.4,1.061c0,1.45-2.105,2.636-4.756,2.716l-.286,0c-2.786,0-5.042-1.218-5.042-2.72a1.578,1.578,0,0,1,.04-.353l.063-.2a1.934,1.934,0,0,1,.295-.512c.766.974,2.558,1.659,4.644,1.659s3.877-.684,4.644-1.659Zm-.029-2.647a1.7,1.7,0,0,1,.429,1.088l-.008.154-.025.151c-.28,1.343-2.415,2.389-5.009,2.389-2.676,0-4.866-1.113-5.032-2.521a1.467,1.467,0,0,1,.023-.479l.049-.179a1.924,1.924,0,0,1,.347-.6,7.435,7.435,0,0,0,9.227,0Zm-4.614-3.908.286,0,.282.013c2.517.141,4.474,1.209,4.474,2.5a1.256,1.256,0,0,1-.013.182l-.026.134c-.2.776-1.105,1.471-2.482,1.868a9.584,9.584,0,0,1-5.042,0c-1.561-.45-2.521-1.282-2.521-2.183,0-1.393,2.256-2.521,5.042-2.521Zm-8.057-.252h-3.081a.831.831,0,0,0-.77.882.854.854,0,0,0,.655.872l.113.01H151.6a.891.891,0,0,0,0-1.765Zm3.082-3.081h-6.164a.831.831,0,0,0-.769.882.854.854,0,0,0,.655.872l.113.01h6.164a.891.891,0,0,0,0-1.765Zm3.081-3.082h-9.244a.832.832,0,0,0-.77.882.854.854,0,0,0,.655.874l.113.009h9.245a.891.891,0,0,0,0-1.765Z" transform="translate(255.337 336.243)" fill="#8e4dfb"/>
        </g>
      </g>
    </g>
  </g>
</svg>
