<svg xmlns="http://www.w3.org/2000/svg" xmlns:xlink="http://www.w3.org/1999/xlink" width="40" height="40" viewBox="0 0 40 40">
  <defs>
    <clipPath id="clip-path">
      <rect id="矩形_114" data-name="矩形 114" width="40" height="40" transform="translate(384 533)" fill="none"/>
    </clipPath>
    <clipPath id="clip-path-2">
      <path id="路径_93" data-name="路径 93" d="M483.379,115.681a13.532,13.532,0,0,0,9.1,12.962c9.6,3.537,13.972,4.561,20.466,15.248a19.134,19.134,0,0,1,0,20.124H472.855V115.681Z" transform="translate(-93.326 420.139)" fill="#ff93bd" opacity="0.73"/>
    </clipPath>
    <clipPath id="clip-path-3">
      <path id="路径_92" data-name="路径 92" d="M483.379,115.681a13.532,13.532,0,0,0,9.1,12.962c9.6,3.537,13.972,4.561,20.466,15.248a19.134,19.134,0,0,1,0,20.124H472.855V115.681Z" transform="translate(-91.826 427.255)" fill="#fd418a" opacity="0.65"/>
    </clipPath>
  </defs>
  <g id="蒙版组_83" data-name="蒙版组 83" transform="translate(-384 -533)" clip-path="url(#clip-path)">
    <g id="组_235" data-name="组 235">
      <rect id="矩形_9" data-name="矩形 9" width="40" height="40" rx="5" transform="translate(384 533)" fill="#ffedf4"/>
      <g id="组_234" data-name="组 234">
        <path id="营销玩法" d="M137.7,128a10.421,10.421,0,0,1,5.842,1.781l-2.723,2.684a6.79,6.79,0,1,0,3.259,3.72l2.795-2.759A10.473,10.473,0,1,1,137.7,128Zm0,5.557a4.92,4.92,0,0,1,1.7.3l-2.723,2.686-.108,3.6,3.591-.1,2.4-2.364a4.93,4.93,0,1,1-4.864-4.121Zm9.212-4.978,1.306,1.312-9.03,9.031-1.378.068.068-1.381,9.03-9.033Z" transform="translate(266.778 415)" fill="#ffc4db"/>
        <g id="蒙版组_81" data-name="蒙版组 81" clip-path="url(#clip-path-2)">
          <path id="营销玩法-2" data-name="营销玩法" d="M137.7,128a10.421,10.421,0,0,1,5.842,1.781l-2.723,2.684a6.79,6.79,0,1,0,3.259,3.72l2.795-2.759A10.473,10.473,0,1,1,137.7,128Zm0,5.557a4.92,4.92,0,0,1,1.7.3l-2.723,2.686-.108,3.6,3.591-.1,2.4-2.364a4.93,4.93,0,1,1-4.864-4.121Zm9.212-4.978,1.306,1.312-9.03,9.031-1.378.068.068-1.381,9.03-9.033Z" transform="translate(266.778 415)" fill="#ff93bd"/>
        </g>
        <g id="蒙版组_82" data-name="蒙版组 82" clip-path="url(#clip-path-3)">
          <path id="营销玩法-3" data-name="营销玩法" d="M137.7,128a10.421,10.421,0,0,1,5.842,1.781l-2.723,2.684a6.79,6.79,0,1,0,3.259,3.72l2.795-2.759A10.473,10.473,0,1,1,137.7,128Zm0,5.557a4.92,4.92,0,0,1,1.7.3l-2.723,2.686-.108,3.6,3.591-.1,2.4-2.364a4.93,4.93,0,1,1-4.864-4.121Zm9.212-4.978,1.306,1.312-9.03,9.031-1.378.068.068-1.381,9.03-9.033Z" transform="translate(266.778 415)" fill="#fd418a"/>
        </g>
      </g>
    </g>
  </g>
</svg>
