<svg xmlns="http://www.w3.org/2000/svg" xmlns:xlink="http://www.w3.org/1999/xlink" width="40" height="40" viewBox="0 0 40 40"><defs><style>.a{fill:none;}.b{fill:#ffc4db;}.c{fill:#fd418a;}.d{fill:#ffedf4;}.e{clip-path:url(#a);}.f{clip-path:url(#b);}.g{fill:#ff93bd;opacity:0.73;}.h{clip-path:url(#c);}</style><clipPath id="a"><rect class="a" width="40" height="40" transform="translate(764 1157)"/></clipPath><clipPath id="b"><path class="b" d="M22.389,2.558,18.154,6.793,16.427,5.066,20.651.842A5.571,5.571,0,0,0,12.322,7L7.511,11.821A5.571,5.571,0,0,0,1.343,20.14l4.224-4.214,1.727,1.727L3.058,21.888a5.571,5.571,0,0,0,8.406-6.114l4.811-4.8A5.571,5.571,0,0,0,22.4,2.579Z" transform="translate(772.493 1166)"/></clipPath><clipPath id="c"><path class="c" d="M483.379,115.681a13.532,13.532,0,0,0,9.1,12.962c9.6,3.537,13.972,4.561,20.466,15.248a19.134,19.134,0,0,1,0,20.124H472.855V115.681Z" transform="matrix(0.97, 0.242, -0.242, 0.97, 339.19, 942.636)"/></clipPath></defs><g transform="translate(-764 -1157)"><rect class="d" width="40" height="40" rx="5" transform="translate(764 1157)"/><g class="e"><path class="b" d="M22.389,2.558,18.154,6.793,16.427,5.066,20.651.842A5.571,5.571,0,0,0,12.322,7L7.511,11.821A5.571,5.571,0,0,0,1.343,20.14l4.224-4.214,1.727,1.727L3.058,21.888a5.571,5.571,0,0,0,8.406-6.114l4.811-4.8A5.571,5.571,0,0,0,22.4,2.579Z" transform="translate(772.493 1166)"/><g class="f"><path class="g" d="M483.379,115.681a13.532,13.532,0,0,0,9.1,12.962c9.6,3.537,13.972,4.561,20.466,15.248a19.134,19.134,0,0,1,0,20.124H472.855V115.681Z" transform="matrix(0.974, 0.225, -0.225, 0.974, 340.775, 945.313)"/></g><g class="h"><path class="c" d="M22.389,2.558,18.154,6.793,16.427,5.066,20.651.842A5.571,5.571,0,0,0,12.322,7L7.511,11.821A5.571,5.571,0,0,0,1.343,20.14l4.224-4.214,1.727,1.727L3.058,21.888a5.571,5.571,0,0,0,8.406-6.114l4.811-4.8A5.571,5.571,0,0,0,22.4,2.579Z" transform="translate(772.493 1166)"/></g></g><rect class="a" width="40" height="40" transform="translate(764 1157)"/></g></svg>