<svg xmlns="http://www.w3.org/2000/svg" xmlns:xlink="http://www.w3.org/1999/xlink" width="40" height="40" viewBox="0 0 40 40"><defs><style>.a,.e{fill:#9097ff;}.b{fill:#d0d3ff;}.c{fill:#f2f3ff;}.d{clip-path:url(#a);}.e{opacity:0.73;}.f{clip-path:url(#b);}.g{fill:#6670ff;opacity:0.65;}.h{fill:none;}</style><clipPath id="a"><path class="a" d="M11.5,0A11.5,11.5,0,1,0,23,11.5,11.5,11.5,0,0,0,11.5,0Zm6.018,13.939h-6.9a.666.666,0,0,1-.666-.666V4.259c.023,0,1.078-.008,1.332,0v8.353h6.234v1.332Zm0,0" transform="translate(1111 1305)"/></clipPath><clipPath id="b"><path class="b" d="M11.5,0A11.5,11.5,0,1,0,23,11.5,11.5,11.5,0,0,0,11.5,0Zm6.018,13.939h-6.9a.666.666,0,0,1-.666-.666V4.259c.023,0,1.078-.008,1.332,0v8.353h6.234v1.332Zm0,0" transform="translate(1111 1305)"/></clipPath></defs><g transform="translate(-1102 -1296)"><rect class="c" width="40" height="40" rx="5" transform="translate(1102 1296)"/><g transform="translate(0 0.5)"><path class="b" d="M11.5,0A11.5,11.5,0,1,0,23,11.5,11.5,11.5,0,0,0,11.5,0Zm6.018,13.939h-6.9a.666.666,0,0,1-.666-.666V4.259c.023,0,1.078-.008,1.332,0v8.353h6.234v1.332Zm0,0" transform="translate(1111 1304)"/><g class="d" transform="translate(0 -1)"><path class="e" d="M483.379,115.681a13.532,13.532,0,0,0,9.1,12.962c9.6,3.537,13.972,4.561,20.466,15.248a19.134,19.134,0,0,1,0,20.124H472.855V115.681Z" transform="translate(632.174 1186.152)"/></g><g class="f" transform="translate(0 -1)"><path class="g" d="M483.379,115.681a13.532,13.532,0,0,0,9.1,12.962c9.6,3.537,13.972,4.561,20.466,15.248a19.134,19.134,0,0,1,0,20.124H472.855V115.681Z" transform="translate(627.174 1193.152)"/></g></g><rect class="h" width="40" height="40" transform="translate(1102 1296)"/></g></svg>