<svg xmlns="http://www.w3.org/2000/svg" xmlns:xlink="http://www.w3.org/1999/xlink" width="40" height="40" viewBox="0 0 40 40">
  <defs>
    <clipPath id="clip-path">
      <rect id="矩形_90" data-name="矩形 90" width="40" height="40" transform="translate(462 282)" fill="none"/>
    </clipPath>
    <clipPath id="clip-path-2">
      <rect id="矩形_51" data-name="矩形 51" width="19.393" height="21" fill="#ffc8c8"/>
    </clipPath>
    <clipPath id="clip-path-3">
      <path id="路径_53" data-name="路径 53" d="M483.379,115.681a13.532,13.532,0,0,0,9.1,12.962c9.6,3.537,13.972,4.561,20.466,15.248a19.134,19.134,0,0,1,0,20.124H472.855V115.681Z" transform="matrix(0.974, 0.225, -0.225, 0.974, -43.583, 62.423)" fill="#ff8989" opacity="0.2"/>
    </clipPath>
    <clipPath id="clip-path-4">
      <rect id="矩形_51-2" data-name="矩形 51" width="19.393" height="21" fill="#ff8989"/>
    </clipPath>
    <clipPath id="clip-path-5">
      <path id="路径_52" data-name="路径 52" d="M483.379,115.681a13.532,13.532,0,0,0,9.1,12.962c9.6,3.537,13.972,4.561,20.466,15.248a19.134,19.134,0,0,1,0,20.124H472.855V115.681Z" transform="matrix(0.927, 0.375, -0.375, 0.927, -2.931, -0.034)" fill="#ff5656" opacity="0.2"/>
    </clipPath>
    <clipPath id="clip-path-6">
      <rect id="矩形_51-3" data-name="矩形 51" width="19.393" height="21" fill="#ff5656"/>
    </clipPath>
  </defs>
  <g id="蒙版组_59" data-name="蒙版组 59" transform="translate(-462 -282)" clip-path="url(#clip-path)">
    <g id="组_177" data-name="组 177">
      <rect id="矩形_14" data-name="矩形 14" width="40" height="40" rx="5" transform="translate(462 282)" fill="#ffebeb"/>
      <g id="组_176" data-name="组 176">
        <g id="组_60" data-name="组 60" transform="translate(314.996 66.996)">
          <g id="组_59" data-name="组 59" transform="translate(157.004 225.004)">
            <g id="组_58" data-name="组 58" clip-path="url(#clip-path-2)">
              <path id="路径_36" data-name="路径 36" d="M165.605,226.958h6.463a.975.975,0,1,0,0-1.95h-6.463a.962.962,0,0,0-.975.976c-.122.487.366.975.975.975Zm3.17,7.682a2.316,2.316,0,1,0,2.317,2.317,2.315,2.315,0,0,0-2.317-2.317Zm0,0" transform="translate(-159.147 -225.005)" fill="#ffc8c8"/>
              <path id="路径_37" data-name="路径 37" d="M175.045,226.2H172a1.875,1.875,0,0,1-1.829,1.829H163.1a1.728,1.728,0,0,1-1.829-1.829h-3.048A1.152,1.152,0,0,0,157,227.415v17.68a1.152,1.152,0,0,0,1.219,1.219h16.948a1.152,1.152,0,0,0,1.219-1.219v-17.68a1.433,1.433,0,0,0-1.341-1.219ZM172,238.633a2.193,2.193,0,0,0-1.585,2.926,5.172,5.172,0,0,1-2.073,1.219,2.406,2.406,0,0,0-1.707-.731,1.965,1.965,0,0,0-1.585.731,5.173,5.173,0,0,1-2.073-1.219,2.354,2.354,0,0,0-.121-1.829,2.147,2.147,0,0,0-1.586-1.1,5.022,5.022,0,0,1-.121-1.341,3.391,3.391,0,0,1,.121-1.1,2.4,2.4,0,0,0,1.586-1.1,2.206,2.206,0,0,0,.121-1.951,4.1,4.1,0,0,1,1.951-1.219,2.329,2.329,0,0,0,1.707.853,2.1,2.1,0,0,0,1.707-.976,7.144,7.144,0,0,1,2.073,1.219,2.207,2.207,0,0,0,.121,1.951,1.72,1.72,0,0,0,1.463.976,9.855,9.855,0,0,1,0,2.682Zm0,0" transform="translate(-157.003 -225.34)" fill="#ffc8c8"/>
            </g>
          </g>
        </g>
        <g id="蒙版组_9" data-name="蒙版组 9" transform="translate(70)" clip-path="url(#clip-path-3)">
          <g id="组_80" data-name="组 80" transform="translate(244.996 66.996)">
            <g id="组_59-2" data-name="组 59" transform="translate(157.004 225.004)">
              <g id="组_58-2" data-name="组 58" clip-path="url(#clip-path-4)">
                <path id="路径_36-2" data-name="路径 36" d="M165.605,226.958h6.463a.975.975,0,1,0,0-1.95h-6.463a.962.962,0,0,0-.975.976c-.122.487.366.975.975.975Zm3.17,7.682a2.316,2.316,0,1,0,2.317,2.317,2.315,2.315,0,0,0-2.317-2.317Zm0,0" transform="translate(-159.147 -225.005)" fill="#ff8989"/>
                <path id="路径_37-2" data-name="路径 37" d="M175.045,226.2H172a1.875,1.875,0,0,1-1.829,1.829H163.1a1.728,1.728,0,0,1-1.829-1.829h-3.048A1.152,1.152,0,0,0,157,227.415v17.68a1.152,1.152,0,0,0,1.219,1.219h16.948a1.152,1.152,0,0,0,1.219-1.219v-17.68a1.433,1.433,0,0,0-1.341-1.219ZM172,238.633a2.193,2.193,0,0,0-1.585,2.926,5.172,5.172,0,0,1-2.073,1.219,2.406,2.406,0,0,0-1.707-.731,1.965,1.965,0,0,0-1.585.731,5.173,5.173,0,0,1-2.073-1.219,2.354,2.354,0,0,0-.121-1.829,2.147,2.147,0,0,0-1.586-1.1,5.022,5.022,0,0,1-.121-1.341,3.391,3.391,0,0,1,.121-1.1,2.4,2.4,0,0,0,1.586-1.1,2.206,2.206,0,0,0,.121-1.951,4.1,4.1,0,0,1,1.951-1.219,2.329,2.329,0,0,0,1.707.853,2.1,2.1,0,0,0,1.707-.976,7.144,7.144,0,0,1,2.073,1.219,2.207,2.207,0,0,0,.121,1.951,1.72,1.72,0,0,0,1.463.976,9.855,9.855,0,0,1,0,2.682Zm0,0" transform="translate(-157.003 -225.34)" fill="#ff8989"/>
              </g>
            </g>
          </g>
        </g>
        <g id="蒙版组_10" data-name="蒙版组 10" transform="translate(70)" clip-path="url(#clip-path-5)">
          <g id="组_81" data-name="组 81" transform="translate(244.996 66.996)">
            <g id="组_59-3" data-name="组 59" transform="translate(157.004 225.004)">
              <g id="组_58-3" data-name="组 58" clip-path="url(#clip-path-6)">
                <path id="路径_36-3" data-name="路径 36" d="M165.605,226.958h6.463a.975.975,0,1,0,0-1.95h-6.463a.962.962,0,0,0-.975.976c-.122.487.366.975.975.975Zm3.17,7.682a2.316,2.316,0,1,0,2.317,2.317,2.315,2.315,0,0,0-2.317-2.317Zm0,0" transform="translate(-159.147 -225.005)" fill="#ff5656"/>
                <path id="路径_37-3" data-name="路径 37" d="M175.045,226.2H172a1.875,1.875,0,0,1-1.829,1.829H163.1a1.728,1.728,0,0,1-1.829-1.829h-3.048A1.152,1.152,0,0,0,157,227.415v17.68a1.152,1.152,0,0,0,1.219,1.219h16.948a1.152,1.152,0,0,0,1.219-1.219v-17.68a1.433,1.433,0,0,0-1.341-1.219ZM172,238.633a2.193,2.193,0,0,0-1.585,2.926,5.172,5.172,0,0,1-2.073,1.219,2.406,2.406,0,0,0-1.707-.731,1.965,1.965,0,0,0-1.585.731,5.173,5.173,0,0,1-2.073-1.219,2.354,2.354,0,0,0-.121-1.829,2.147,2.147,0,0,0-1.586-1.1,5.022,5.022,0,0,1-.121-1.341,3.391,3.391,0,0,1,.121-1.1,2.4,2.4,0,0,0,1.586-1.1,2.206,2.206,0,0,0,.121-1.951,4.1,4.1,0,0,1,1.951-1.219,2.329,2.329,0,0,0,1.707.853,2.1,2.1,0,0,0,1.707-.976,7.144,7.144,0,0,1,2.073,1.219,2.207,2.207,0,0,0,.121,1.951,1.72,1.72,0,0,0,1.463.976,9.855,9.855,0,0,1,0,2.682Zm0,0" transform="translate(-157.003 -225.34)" fill="#ff5656"/>
              </g>
            </g>
          </g>
        </g>
      </g>
    </g>
  </g>
</svg>
