<svg xmlns="http://www.w3.org/2000/svg" xmlns:xlink="http://www.w3.org/1999/xlink" width="40" height="40" viewBox="0 0 40 40"><defs><style>.a{fill:none;}.b,.h{fill:#ffe13e;}.b{opacity:0.73;}.c,.j{fill:#ffd800;}.c{opacity:0.65;}.d{clip-path:url(#a);}.e{fill:#fff9d5;}.f{fill:#ffea7c;}.g{clip-path:url(#b);}.i{clip-path:url(#c);}</style><clipPath id="a"><rect class="a" width="40" height="40" transform="translate(1059 392)"/></clipPath><clipPath id="b"><path class="b" d="M483.379,115.681a13.532,13.532,0,0,0,9.1,12.962c9.6,3.537,13.972,4.561,20.466,15.248a19.134,19.134,0,0,1,0,20.124H472.855V115.681Z" transform="matrix(1, -0.017, 0.017, 1, 583.39, 291.763)"/></clipPath><clipPath id="c"><path class="c" d="M483.379,115.681a13.532,13.532,0,0,0,9.1,12.962c9.6,3.537,13.972,4.561,20.466,15.248a19.134,19.134,0,0,1,0,20.124H472.855V115.681Z" transform="translate(566.791 358.781) rotate(-8)"/></clipPath></defs><g transform="translate(-1059 -392)"><g class="d"><rect class="e" width="40" height="40" rx="5" transform="translate(1059 392)"/><path class="f" d="M0,1.557A1.564,1.564,0,0,1,1.557,0H7.872A1.564,1.564,0,0,1,9.429,1.557V7.872A1.564,1.564,0,0,1,7.872,9.429H1.557A1.564,1.564,0,0,1,0,7.872V1.557Zm12.571,0A1.564,1.564,0,0,1,14.128,0h6.316A1.564,1.564,0,0,1,22,1.557V7.872a1.564,1.564,0,0,1-1.556,1.557H14.128a1.564,1.564,0,0,1-1.556-1.557V1.557Zm0,12.586a1.571,1.571,0,0,1,1.556-1.571h6.316a1.571,1.571,0,0,1,0,3.143H14.128A1.559,1.559,0,0,1,12.571,14.143Zm0,6.286a1.571,1.571,0,0,1,1.556-1.571h6.316a1.571,1.571,0,0,1,0,3.143H14.128A1.559,1.559,0,0,1,12.571,20.429ZM0,14.128a1.564,1.564,0,0,1,1.557-1.556H7.872a1.564,1.564,0,0,1,1.557,1.556v6.316A1.564,1.564,0,0,1,7.872,22H1.557A1.564,1.564,0,0,1,0,20.444Z" transform="translate(1068 401)"/><g class="g" transform="translate(0 -1)"><path class="h" d="M0,1.557A1.564,1.564,0,0,1,1.557,0H7.872A1.564,1.564,0,0,1,9.429,1.557V7.872A1.564,1.564,0,0,1,7.872,9.429H1.557A1.564,1.564,0,0,1,0,7.872V1.557Zm12.571,0A1.564,1.564,0,0,1,14.128,0h6.316A1.564,1.564,0,0,1,22,1.557V7.872a1.564,1.564,0,0,1-1.556,1.557H14.128a1.564,1.564,0,0,1-1.556-1.557V1.557Zm0,12.586a1.571,1.571,0,0,1,1.556-1.571h6.316a1.571,1.571,0,0,1,0,3.143H14.128A1.559,1.559,0,0,1,12.571,14.143Zm0,6.286a1.571,1.571,0,0,1,1.556-1.571h6.316a1.571,1.571,0,0,1,0,3.143H14.128A1.559,1.559,0,0,1,12.571,20.429ZM0,14.128a1.564,1.564,0,0,1,1.557-1.556H7.872a1.564,1.564,0,0,1,1.557,1.556v6.316A1.564,1.564,0,0,1,7.872,22H1.557A1.564,1.564,0,0,1,0,20.444Z" transform="translate(1068 402)"/></g><g class="i" transform="translate(0 -1)"><path class="j" d="M0,1.557A1.564,1.564,0,0,1,1.557,0H7.872A1.564,1.564,0,0,1,9.429,1.557V7.872A1.564,1.564,0,0,1,7.872,9.429H1.557A1.564,1.564,0,0,1,0,7.872V1.557Zm12.571,0A1.564,1.564,0,0,1,14.128,0h6.316A1.564,1.564,0,0,1,22,1.557V7.872a1.564,1.564,0,0,1-1.556,1.557H14.128a1.564,1.564,0,0,1-1.556-1.557V1.557Zm0,12.586a1.571,1.571,0,0,1,1.556-1.571h6.316a1.571,1.571,0,0,1,0,3.143H14.128A1.559,1.559,0,0,1,12.571,14.143Zm0,6.286a1.571,1.571,0,0,1,1.556-1.571h6.316a1.571,1.571,0,0,1,0,3.143H14.128A1.559,1.559,0,0,1,12.571,20.429ZM0,14.128a1.564,1.564,0,0,1,1.557-1.556H7.872a1.564,1.564,0,0,1,1.557,1.556v6.316A1.564,1.564,0,0,1,7.872,22H1.557A1.564,1.564,0,0,1,0,20.444Z" transform="translate(1068 402)"/></g></g><rect class="a" width="40" height="40" transform="translate(1059 392)"/></g></svg>