<svg xmlns="http://www.w3.org/2000/svg" xmlns:xlink="http://www.w3.org/1999/xlink" width="40" height="40" viewBox="0 0 40 40"><defs><style>.a{fill:none;}.b,.h{fill:#ffe13e;}.b{opacity:0.73;}.c,.j{fill:#ffd800;}.c{opacity:0.65;}.d{clip-path:url(#a);}.e{fill:#fff9d5;}.f{fill:#ffea7c;}.g{clip-path:url(#c);}.i{clip-path:url(#d);}</style><clipPath id="a"><rect class="a" width="40" height="40" transform="translate(782 392)"/></clipPath><clipPath id="c"><path class="b" d="M483.379,115.681a13.532,13.532,0,0,0,9.1,12.962c9.6,3.537,13.972,4.561,20.466,15.248a19.134,19.134,0,0,1,0,20.124H472.855V115.681Z" transform="translate(304.954 278.985)"/></clipPath><clipPath id="d"><path class="c" d="M483.379,115.681a13.532,13.532,0,0,0,9.1,12.962c9.6,3.537,13.972,4.561,20.466,15.248a19.134,19.134,0,0,1,0,20.124H472.855V115.681Z" transform="matrix(0.985, -0.174, 0.174, 0.985, 289.371, 376.587)"/></clipPath></defs><g transform="translate(-782 -392)"><g class="d"><g class="d"><rect class="e" width="40" height="40" rx="5" transform="translate(782 392)"/><g transform="translate(0 -1)"><path class="f" d="M145.777,98.533a2.211,2.211,0,0,1,2.222,2.2v4.4a2.211,2.211,0,0,1-2.222,2.2H130.222a2.211,2.211,0,0,1-2.222-2.2v-4.4a2.211,2.211,0,0,1,2.222-2.2h15.556Zm-4.444,3.3h-6.667a1.1,1.1,0,0,0-.13,2.192l.13.008h6.667a1.1,1.1,0,1,0,0-2.2Zm4.444-13.2a2.211,2.211,0,0,1,2.222,2.2v4.4a2.211,2.211,0,0,1-2.222,2.2H130.222a2.211,2.211,0,0,1-2.222-2.2v-4.4a2.211,2.211,0,0,1,2.222-2.2h15.556Zm-4.444,3.3h-6.667a1.1,1.1,0,0,0-.13,2.192l.13.008h6.667a1.1,1.1,0,1,0,0-2.2Zm3-6.6a1.119,1.119,0,0,1,.617.185l1.526,1.007a.547.547,0,0,1,.224.617.555.555,0,0,1-.531.391H129.833a.555.555,0,0,1-.531-.391.547.547,0,0,1,.224-.617l1.527-1.008a1.119,1.119,0,0,1,.618-.185Z" transform="translate(664 316.667)"/><g class="g"><path class="h" d="M145.777,98.533a2.211,2.211,0,0,1,2.222,2.2v4.4a2.211,2.211,0,0,1-2.222,2.2H130.222a2.211,2.211,0,0,1-2.222-2.2v-4.4a2.211,2.211,0,0,1,2.222-2.2h15.556Zm-4.444,3.3h-6.667a1.1,1.1,0,0,0-.13,2.192l.13.008h6.667a1.1,1.1,0,1,0,0-2.2Zm4.444-13.2a2.211,2.211,0,0,1,2.222,2.2v4.4a2.211,2.211,0,0,1-2.222,2.2H130.222a2.211,2.211,0,0,1-2.222-2.2v-4.4a2.211,2.211,0,0,1,2.222-2.2h15.556Zm-4.444,3.3h-6.667a1.1,1.1,0,0,0-.13,2.192l.13.008h6.667a1.1,1.1,0,1,0,0-2.2Zm3-6.6a1.119,1.119,0,0,1,.617.185l1.526,1.007a.547.547,0,0,1,.224.617.555.555,0,0,1-.531.391H129.833a.555.555,0,0,1-.531-.391.547.547,0,0,1,.224-.617l1.527-1.008a1.119,1.119,0,0,1,.618-.185Z" transform="translate(664 316.667)"/></g><g class="i"><path class="j" d="M145.777,98.533a2.211,2.211,0,0,1,2.222,2.2v4.4a2.211,2.211,0,0,1-2.222,2.2H130.222a2.211,2.211,0,0,1-2.222-2.2v-4.4a2.211,2.211,0,0,1,2.222-2.2h15.556Zm-4.444,3.3h-6.667a1.1,1.1,0,0,0-.13,2.192l.13.008h6.667a1.1,1.1,0,1,0,0-2.2Zm4.444-13.2a2.211,2.211,0,0,1,2.222,2.2v4.4a2.211,2.211,0,0,1-2.222,2.2H130.222a2.211,2.211,0,0,1-2.222-2.2v-4.4a2.211,2.211,0,0,1,2.222-2.2h15.556Zm-4.444,3.3h-6.667a1.1,1.1,0,0,0-.13,2.192l.13.008h6.667a1.1,1.1,0,1,0,0-2.2Zm3-6.6a1.119,1.119,0,0,1,.617.185l1.526,1.007a.547.547,0,0,1,.224.617.555.555,0,0,1-.531.391H129.833a.555.555,0,0,1-.531-.391.547.547,0,0,1,.224-.617l1.527-1.008a1.119,1.119,0,0,1,.618-.185Z" transform="translate(664 316.667)"/></g></g></g></g><rect class="a" width="40" height="40" transform="translate(782 392)"/></g></svg>