<svg xmlns="http://www.w3.org/2000/svg" xmlns:xlink="http://www.w3.org/1999/xlink" width="40" height="40" viewBox="0 0 40 40"><defs><style>.a{fill:none;}.b,.h{fill:#ffe13e;}.b{opacity:0.73;}.c,.j{fill:#ffd800;}.c{opacity:0.65;}.d{clip-path:url(#a);}.e{fill:#fff9d5;}.f{fill:#ffea7c;}.g{clip-path:url(#b);}.i{clip-path:url(#c);}</style><clipPath id="a"><rect class="a" width="40" height="40" transform="translate(932 462)"/></clipPath><clipPath id="b"><path class="b" d="M483.379,115.681a13.532,13.532,0,0,0,9.1,12.962c9.6,3.537,13.972,4.561,20.466,15.248a19.134,19.134,0,0,1,0,20.124H472.855V115.681Z" transform="translate(499.246 242.915) rotate(13)"/></clipPath><clipPath id="c"><path class="c" d="M483.379,115.681a13.532,13.532,0,0,0,9.1,12.962c9.6,3.537,13.972,4.561,20.466,15.248a19.134,19.134,0,0,1,0,20.124H472.855V115.681Z" transform="translate(477.66 288.095) rotate(8)"/></clipPath></defs><g transform="translate(-932 -462)"><g class="d"><rect class="e" width="40" height="40" rx="5" transform="translate(932 462)"/><path class="f" d="M19.419,0H2.581A2.581,2.581,0,0,0,0,2.581V19.419A2.581,2.581,0,0,0,2.581,22H19.419A2.581,2.581,0,0,0,22,19.419V2.581A2.581,2.581,0,0,0,19.419,0ZM4.256,17.681a1.326,1.326,0,1,1,1.326-1.326,1.326,1.326,0,0,1-1.326,1.326Zm0-5.377a.551.551,0,1,1,0,.018V12.3Zm0-5.377a1.308,1.308,0,1,1,0,.036V6.927ZM18.308,16.973H7.85a.762.762,0,1,1,0-1.514H18.308a.762.762,0,1,1,0,1.514Zm0-5.376H7.85a.762.762,0,0,1,0-1.515H18.308a.762.762,0,1,1,0,1.515Zm0-5.377H7.85a.762.762,0,1,1,0-1.514H18.308a.762.762,0,1,1,0,1.514Z" transform="translate(941 471)"/><g class="g"><path class="h" d="M19.419,0H2.581A2.581,2.581,0,0,0,0,2.581V19.419A2.581,2.581,0,0,0,2.581,22H19.419A2.581,2.581,0,0,0,22,19.419V2.581A2.581,2.581,0,0,0,19.419,0ZM4.256,17.681a1.326,1.326,0,1,1,1.326-1.326,1.326,1.326,0,0,1-1.326,1.326Zm0-5.377a.551.551,0,1,1,0,.018V12.3Zm0-5.377a1.308,1.308,0,1,1,0,.036V6.927ZM18.308,16.973H7.85a.762.762,0,1,1,0-1.514H18.308a.762.762,0,1,1,0,1.514Zm0-5.376H7.85a.762.762,0,0,1,0-1.515H18.308a.762.762,0,1,1,0,1.515Zm0-5.377H7.85a.762.762,0,1,1,0-1.514H18.308a.762.762,0,1,1,0,1.514Z" transform="translate(941 471)"/></g><g class="i"><path class="j" d="M19.419,0H2.581A2.581,2.581,0,0,0,0,2.581V19.419A2.581,2.581,0,0,0,2.581,22H19.419A2.581,2.581,0,0,0,22,19.419V2.581A2.581,2.581,0,0,0,19.419,0ZM4.256,17.681a1.326,1.326,0,1,1,1.326-1.326,1.326,1.326,0,0,1-1.326,1.326Zm0-5.377a.551.551,0,1,1,0,.018V12.3Zm0-5.377a1.308,1.308,0,1,1,0,.036V6.927ZM18.308,16.973H7.85a.762.762,0,1,1,0-1.514H18.308a.762.762,0,1,1,0,1.514Zm0-5.376H7.85a.762.762,0,0,1,0-1.515H18.308a.762.762,0,1,1,0,1.515Zm0-5.377H7.85a.762.762,0,1,1,0-1.514H18.308a.762.762,0,1,1,0,1.514Z" transform="translate(941 471)"/></g></g><rect class="a" width="40" height="40" transform="translate(932 462)"/></g></svg>