<svg xmlns="http://www.w3.org/2000/svg" xmlns:xlink="http://www.w3.org/1999/xlink" width="40" height="40" viewBox="0 0 40 40">
  <defs>
    <clipPath id="clip-path">
      <rect id="矩形_86" data-name="矩形 86" width="40" height="40" transform="translate(545 113)" fill="none"/>
    </clipPath>
    <clipPath id="clip-path-2">
      <rect id="矩形_30" data-name="矩形 30" width="22" height="22" fill="#ffc8c8"/>
    </clipPath>
    <clipPath id="clip-path-3">
      <path id="路径_42" data-name="路径 42" d="M483.379,115.681a13.532,13.532,0,0,0,9.1,12.962c9.6,3.537,13.972,4.561,20.466,15.248a19.134,19.134,0,0,1,0,20.124H472.855V115.681Z" transform="translate(0.159 -1)" fill="#ff8989" opacity="0.2"/>
    </clipPath>
    <clipPath id="clip-path-4">
      <rect id="矩形_30-2" data-name="矩形 30" width="22" height="22" fill="#ff8989"/>
    </clipPath>
    <clipPath id="clip-path-5">
      <path id="路径_43" data-name="路径 43" d="M483.379,115.681a13.532,13.532,0,0,0,9.1,12.962c9.6,3.537,13.972,4.561,20.466,15.248a19.134,19.134,0,0,1,0,20.124H472.855V115.681Z" transform="translate(17.667 -54.05) rotate(7)" fill="#ff5656" opacity="0.2"/>
    </clipPath>
    <clipPath id="clip-path-6">
      <rect id="矩形_30-3" data-name="矩形 30" width="22" height="22" fill="#ff5656"/>
    </clipPath>
  </defs>
  <g id="蒙版组_55" data-name="蒙版组 55" transform="translate(-545 -113)" clip-path="url(#clip-path)">
    <rect id="矩形_5" data-name="矩形 5" width="40" height="40" rx="5" transform="translate(545 113)" fill="#ffebeb"/>
    <g id="组_170" data-name="组 170">
      <g id="组_70" data-name="组 70" transform="translate(314.78 65.994)">
        <g id="组_7" data-name="组 7" transform="translate(240.005 56.006)">
          <g id="组_6" data-name="组 6">
            <g id="组_5" data-name="组 5" clip-path="url(#clip-path-2)">
              <path id="路径_7" data-name="路径 7" d="M258.41,56a2.163,2.163,0,0,1,2.183,1.964l1.385,17.721a2.144,2.144,0,0,1-2.017,2.277l-.165.006H242.191A2.157,2.157,0,0,1,240,75.851l.007-.16,1.386-17.723A2.164,2.164,0,0,1,243.577,56Zm-1.931,5.175a1.083,1.083,0,0,0-1.047.923c-.417,3.126-1.827,4.514-4.438,4.514s-4.066-1.4-4.545-4.532a1.092,1.092,0,0,0-1.238-.862,1.069,1.069,0,0,0-.928,1.173c.63,4.117,2.934,6.343,6.711,6.343s6.058-2.237,6.609-6.362a1.062,1.062,0,0,0-.77-1.153l-.174-.036-.178-.008Zm0,0" transform="translate(-240.004 -56.006)" fill="#ffc8c8"/>
            </g>
          </g>
        </g>
      </g>
      <g id="蒙版组_1" data-name="蒙版组 1" transform="translate(72.785 2)" clip-path="url(#clip-path-3)">
        <g id="组_9" data-name="组 9" transform="translate(241.995 63.994)">
          <g id="组_7-2" data-name="组 7" transform="translate(240.005 56.006)">
            <g id="组_6-2" data-name="组 6">
              <g id="组_5-2" data-name="组 5" clip-path="url(#clip-path-4)">
                <path id="路径_7-2" data-name="路径 7" d="M258.41,56a2.163,2.163,0,0,1,2.183,1.964l1.385,17.721a2.144,2.144,0,0,1-2.017,2.277l-.165.006H242.191A2.157,2.157,0,0,1,240,75.851l.007-.16,1.386-17.723A2.164,2.164,0,0,1,243.577,56Zm-1.931,5.175a1.083,1.083,0,0,0-1.047.923c-.417,3.126-1.827,4.514-4.438,4.514s-4.066-1.4-4.545-4.532a1.092,1.092,0,0,0-1.238-.862,1.069,1.069,0,0,0-.928,1.173c.63,4.117,2.934,6.343,6.711,6.343s6.058-2.237,6.609-6.362a1.062,1.062,0,0,0-.77-1.153l-.174-.036-.178-.008Zm0,0" transform="translate(-240.004 -56.006)" fill="#ff8989"/>
              </g>
            </g>
          </g>
        </g>
      </g>
      <g id="蒙版组_2" data-name="蒙版组 2" transform="translate(72.785 2)" clip-path="url(#clip-path-5)">
        <g id="组_71" data-name="组 71" transform="translate(241.995 63.994)">
          <g id="组_7-3" data-name="组 7" transform="translate(240.005 56.006)">
            <g id="组_6-3" data-name="组 6">
              <g id="组_5-3" data-name="组 5" clip-path="url(#clip-path-6)">
                <path id="路径_7-3" data-name="路径 7" d="M258.41,56a2.163,2.163,0,0,1,2.183,1.964l1.385,17.721a2.144,2.144,0,0,1-2.017,2.277l-.165.006H242.191A2.157,2.157,0,0,1,240,75.851l.007-.16,1.386-17.723A2.164,2.164,0,0,1,243.577,56Zm-1.931,5.175a1.083,1.083,0,0,0-1.047.923c-.417,3.126-1.827,4.514-4.438,4.514s-4.066-1.4-4.545-4.532a1.092,1.092,0,0,0-1.238-.862,1.069,1.069,0,0,0-.928,1.173c.63,4.117,2.934,6.343,6.711,6.343s6.058-2.237,6.609-6.362a1.062,1.062,0,0,0-.77-1.153l-.174-.036-.178-.008Zm0,0" transform="translate(-240.004 -56.006)" fill="#ff5656"/>
              </g>
            </g>
          </g>
        </g>
      </g>
    </g>
  </g>
</svg>
