<svg xmlns="http://www.w3.org/2000/svg" xmlns:xlink="http://www.w3.org/1999/xlink" width="40" height="40" viewBox="0 0 40 40">
  <defs>
    <clipPath id="clip-path">
      <rect id="矩形_105" data-name="矩形 105" width="40" height="40" transform="translate(542 625)" fill="none"/>
    </clipPath>
    <clipPath id="clip-path-2">
      <path id="路径_87" data-name="路径 87" d="M483.379,115.681a13.532,13.532,0,0,0,9.1,12.962c9.6,3.537,13.972,4.561,20.466,15.248a19.134,19.134,0,0,1,0,20.124H472.855V115.681Z" transform="translate(-5.596 511.4)" fill="#9097ff" opacity="0.73"/>
    </clipPath>
    <clipPath id="clip-path-3">
      <path id="路径_86" data-name="路径 86" d="M483.379,115.681a13.532,13.532,0,0,0,9.1,12.962c9.6,3.537,13.972,4.561,20.466,15.248a19.134,19.134,0,0,1,0,20.124H472.855V115.681Z" transform="translate(-2.34 522.473)" fill="#6670ff" opacity="0.65"/>
    </clipPath>
  </defs>
  <g id="蒙版组_74" data-name="蒙版组 74" transform="translate(-542 -625)" clip-path="url(#clip-path)">
    <g id="组_207" data-name="组 207">
      <rect id="矩形_24" data-name="矩形 24" width="40" height="40" rx="5" transform="translate(542 625)" fill="#f2f3ff"/>
      <g id="组_206" data-name="组 206">
        <g id="组_54" data-name="组 54" transform="translate(315 64.981)">
          <path id="路径_34" data-name="路径 34" d="M256.214,571.019H238.631A2.634,2.634,0,0,0,236,573.656v11.863a2.632,2.632,0,0,0,2.631,2.635h17.586a2.634,2.634,0,0,0,2.631-2.635V573.656a2.638,2.638,0,0,0-2.633-2.637Zm-5.935,5.712h4.284v1.428h-4.284Zm0,2.855h4.284v1.428h-4.284Zm-3.167,4.714a.512.512,0,0,1-.1.009l-8.305-.02a.527.527,0,0,1-.418-.617,4.7,4.7,0,0,1,3.331-3.626,2.753,2.753,0,1,1,2.578,0,4.7,4.7,0,0,1,3.331,3.64.526.526,0,0,1-.419.615Zm8.879-.43h-5.712v-1.428h5.712Zm0,0" fill="#d0d3ff"/>
        </g>
        <g id="蒙版组_41" data-name="蒙版组 41" transform="translate(70)" clip-path="url(#clip-path-2)">
          <g id="组_121" data-name="组 121" transform="translate(245 64.981)">
            <path id="路径_34-2" data-name="路径 34" d="M256.214,571.019H238.631A2.634,2.634,0,0,0,236,573.656v11.863a2.632,2.632,0,0,0,2.631,2.635h17.586a2.634,2.634,0,0,0,2.631-2.635V573.656a2.638,2.638,0,0,0-2.633-2.637Zm-5.935,5.712h4.284v1.428h-4.284Zm0,2.855h4.284v1.428h-4.284Zm-3.167,4.714a.512.512,0,0,1-.1.009l-8.305-.02a.527.527,0,0,1-.418-.617,4.7,4.7,0,0,1,3.331-3.626,2.753,2.753,0,1,1,2.578,0,4.7,4.7,0,0,1,3.331,3.64.526.526,0,0,1-.419.615Zm8.879-.43h-5.712v-1.428h5.712Zm0,0" fill="#9097ff"/>
          </g>
        </g>
        <g id="蒙版组_42" data-name="蒙版组 42" transform="translate(70)" clip-path="url(#clip-path-3)">
          <g id="组_122" data-name="组 122" transform="translate(245 64.981)">
            <path id="路径_34-3" data-name="路径 34" d="M256.214,571.019H238.631A2.634,2.634,0,0,0,236,573.656v11.863a2.632,2.632,0,0,0,2.631,2.635h17.586a2.634,2.634,0,0,0,2.631-2.635V573.656a2.638,2.638,0,0,0-2.633-2.637Zm-5.935,5.712h4.284v1.428h-4.284Zm0,2.855h4.284v1.428h-4.284Zm-3.167,4.714a.512.512,0,0,1-.1.009l-8.305-.02a.527.527,0,0,1-.418-.617,4.7,4.7,0,0,1,3.331-3.626,2.753,2.753,0,1,1,2.578,0,4.7,4.7,0,0,1,3.331,3.64.526.526,0,0,1-.419.615Zm8.879-.43h-5.712v-1.428h5.712Zm0,0" fill="#6670ff"/>
          </g>
        </g>
      </g>
    </g>
  </g>
</svg>
