<svg xmlns="http://www.w3.org/2000/svg" xmlns:xlink="http://www.w3.org/1999/xlink" width="40" height="40" viewBox="0 0 40 40">
  <defs>
    <clipPath id="clip-path">
      <rect id="矩形_91" data-name="矩形 91" width="40" height="40" transform="translate(544 282)" fill="none"/>
    </clipPath>
    <clipPath id="clip-path-2">
      <rect id="矩形_50" data-name="矩形 50" width="19.979" height="20.486" fill="#ffc8c8"/>
    </clipPath>
    <clipPath id="clip-path-3">
      <path id="路径_50" data-name="路径 50" d="M483.379,115.681a13.532,13.532,0,0,0,9.1,12.962c9.6,3.537,13.972,4.561,20.466,15.248a19.134,19.134,0,0,1,0,20.124H472.855V115.681Z" transform="matrix(1, 0, 0, 1, -3.061, 170.041)" fill="#ff8989" opacity="0.2"/>
    </clipPath>
    <clipPath id="clip-path-4">
      <rect id="矩形_50-2" data-name="矩形 50" width="19.979" height="20.486" fill="#ff8989"/>
    </clipPath>
    <clipPath id="clip-path-5">
      <path id="路径_51" data-name="路径 51" d="M483.379,115.681a13.532,13.532,0,0,0,9.1,12.962c9.6,3.537,13.972,4.561,20.466,15.248a19.134,19.134,0,0,1,0,20.124H472.855V115.681Z" transform="matrix(0.974, -0.225, 0.225, 0.974, -22.587, 291.828)" fill="#ff5656" opacity="0.2"/>
    </clipPath>
    <clipPath id="clip-path-6">
      <rect id="矩形_50-3" data-name="矩形 50" width="19.979" height="20.486" fill="#ff5656"/>
    </clipPath>
  </defs>
  <g id="蒙版组_60" data-name="蒙版组 60" transform="translate(-544 -282)" clip-path="url(#clip-path)">
    <g id="组_179" data-name="组 179">
      <rect id="矩形_15" data-name="矩形 15" width="40" height="40" rx="5" transform="translate(544 282)" fill="#ffebeb"/>
      <g id="组_178" data-name="组 178">
        <g id="组_57" data-name="组 57" transform="translate(315.994 66.994)">
          <g id="组_56" data-name="组 56" transform="translate(238.006 225.006)">
            <g id="组_55" data-name="组 55" clip-path="url(#clip-path-2)">
              <path id="路径_35" data-name="路径 35" d="M247.978,232.487l-2.995-1.162L253.3,227.5l3.326,1.5ZM251.3,226.5l-8.315,3.826-3.657-1.5L247.978,225ZM238,229.993l3.326,1.5v5.155a.831.831,0,0,0,1.663,0v-4.489l4.489,1.995V245.46L238,241.3Zm11.141,15.133V233.819l8.815-3.826V241.3Zm0,0" transform="translate(-238.004 -225.005)" fill="#ffc8c8"/>
            </g>
          </g>
        </g>
        <g id="蒙版组_11" data-name="蒙版组 11" transform="translate(70)" clip-path="url(#clip-path-3)">
          <g id="组_82" data-name="组 82" transform="translate(245.994 66.994)">
            <g id="组_56-2" data-name="组 56" transform="translate(238.006 225.006)">
              <g id="组_55-2" data-name="组 55" clip-path="url(#clip-path-4)">
                <path id="路径_35-2" data-name="路径 35" d="M247.978,232.487l-2.995-1.162L253.3,227.5l3.326,1.5ZM251.3,226.5l-8.315,3.826-3.657-1.5L247.978,225ZM238,229.993l3.326,1.5v5.155a.831.831,0,0,0,1.663,0v-4.489l4.489,1.995V245.46L238,241.3Zm11.141,15.133V233.819l8.815-3.826V241.3Zm0,0" transform="translate(-238.004 -225.005)" fill="#ff8989"/>
              </g>
            </g>
          </g>
        </g>
        <g id="蒙版组_12" data-name="蒙版组 12" transform="translate(70)" clip-path="url(#clip-path-5)">
          <g id="组_83" data-name="组 83" transform="translate(245.994 66.994)">
            <g id="组_56-3" data-name="组 56" transform="translate(238.006 225.006)">
              <g id="组_55-3" data-name="组 55" clip-path="url(#clip-path-6)">
                <path id="路径_35-3" data-name="路径 35" d="M247.978,232.487l-2.995-1.162L253.3,227.5l3.326,1.5ZM251.3,226.5l-8.315,3.826-3.657-1.5L247.978,225ZM238,229.993l3.326,1.5v5.155a.831.831,0,0,0,1.663,0v-4.489l4.489,1.995V245.46L238,241.3Zm11.141,15.133V233.819l8.815-3.826V241.3Zm0,0" transform="translate(-238.004 -225.005)" fill="#ff5656"/>
              </g>
            </g>
          </g>
        </g>
      </g>
    </g>
  </g>
</svg>
