<svg xmlns="http://www.w3.org/2000/svg" xmlns:xlink="http://www.w3.org/1999/xlink" width="40" height="40" viewBox="0 0 40 40">
  <defs>
    <clipPath id="clip-path">
      <rect id="矩形_94" data-name="矩形 94" width="40" height="40" transform="translate(774 282)" fill="none"/>
    </clipPath>
    <clipPath id="clip-path-2">
      <rect id="矩形_41" data-name="矩形 41" width="20.413" height="22.486" fill="#ffc8c8"/>
    </clipPath>
    <clipPath id="clip-path-3">
      <path id="路径_60" data-name="路径 60" d="M483.379,115.681a13.532,13.532,0,0,0,9.1,12.962c9.6,3.537,13.972,4.561,20.466,15.248a19.134,19.134,0,0,1,0,20.124H472.855V115.681Z" transform="translate(225.272 170.041)" fill="#ff8989" opacity="0.2"/>
    </clipPath>
    <clipPath id="clip-path-4">
      <rect id="矩形_41-2" data-name="矩形 41" width="20.413" height="22.486" fill="#ff8989"/>
    </clipPath>
    <clipPath id="clip-path-5">
      <path id="路径_61" data-name="路径 61" d="M483.379,115.681a13.532,13.532,0,0,0,9.1,12.962c9.6,3.537,13.972,4.561,20.466,15.248a19.134,19.134,0,0,1,0,20.124H472.855V115.681Z" transform="translate(222.176 165.81) rotate(1)" fill="#ff5656" opacity="0.2"/>
    </clipPath>
    <clipPath id="clip-path-6">
      <rect id="矩形_41-3" data-name="矩形 41" width="20.413" height="22.486" fill="#ff5656"/>
    </clipPath>
  </defs>
  <g id="蒙版组_63" data-name="蒙版组 63" transform="translate(-774 -282)" clip-path="url(#clip-path)">
    <g id="组_185" data-name="组 185">
      <rect id="矩形_21" data-name="矩形 21" width="40" height="40" rx="5" transform="translate(774 282)" fill="#ffebeb"/>
      <g id="组_184" data-name="组 184">
        <g id="组_27" data-name="组 27" transform="translate(312 68.998)">
          <g id="组_26" data-name="组 26" transform="translate(472 222.002)">
            <g id="组_25" data-name="组 25" clip-path="url(#clip-path-2)">
              <path id="路径_18" data-name="路径 18" d="M476.717,228.422a.794.794,0,0,0,.787-.8c0-2.507,2.369-4,4.664-4,2.246,0,4.751,1.721,4.751,4a.787.787,0,1,0,1.573,0c0-3.3-3.33-5.613-6.324-5.613-3.068,0-6.237,2.1-6.237,5.6a.8.8,0,0,0,.787.812Zm15.2,1.545a2.129,2.129,0,0,0-1.659-.761H474.149a2.134,2.134,0,0,0-1.659.761,2.282,2.282,0,0,0-.462,1.8l1.684,10.415a2.79,2.79,0,0,0,2.668,2.281h11.649a2.766,2.766,0,0,0,2.656-2.294l1.684-10.4a2.186,2.186,0,0,0-.447-1.8Zm-14.481,5.6a1.584,1.584,0,1,1,1.548-1.583,1.562,1.562,0,0,1-1.548,1.583Zm9.443,0a1.584,1.584,0,1,1,1.545-1.583,1.563,1.563,0,0,1-1.545,1.583Zm0,0" transform="translate(-472 -222.005)" fill="#ffc8c8"/>
            </g>
          </g>
        </g>
        <g id="蒙版组_17" data-name="蒙版组 17" transform="translate(70)" clip-path="url(#clip-path-3)">
          <g id="组_88" data-name="组 88" transform="translate(242 68.998)">
            <g id="组_26-2" data-name="组 26" transform="translate(472 222.002)">
              <g id="组_25-2" data-name="组 25" clip-path="url(#clip-path-4)">
                <path id="路径_18-2" data-name="路径 18" d="M476.717,228.422a.794.794,0,0,0,.787-.8c0-2.507,2.369-4,4.664-4,2.246,0,4.751,1.721,4.751,4a.787.787,0,1,0,1.573,0c0-3.3-3.33-5.613-6.324-5.613-3.068,0-6.237,2.1-6.237,5.6a.8.8,0,0,0,.787.812Zm15.2,1.545a2.129,2.129,0,0,0-1.659-.761H474.149a2.134,2.134,0,0,0-1.659.761,2.282,2.282,0,0,0-.462,1.8l1.684,10.415a2.79,2.79,0,0,0,2.668,2.281h11.649a2.766,2.766,0,0,0,2.656-2.294l1.684-10.4a2.186,2.186,0,0,0-.447-1.8Zm-14.481,5.6a1.584,1.584,0,1,1,1.548-1.583,1.562,1.562,0,0,1-1.548,1.583Zm9.443,0a1.584,1.584,0,1,1,1.545-1.583,1.563,1.563,0,0,1-1.545,1.583Zm0,0" transform="translate(-472 -222.005)" fill="#ff8989"/>
              </g>
            </g>
          </g>
        </g>
        <g id="蒙版组_18" data-name="蒙版组 18" transform="translate(70)" clip-path="url(#clip-path-5)">
          <g id="组_89" data-name="组 89" transform="translate(242 68.998)">
            <g id="组_26-3" data-name="组 26" transform="translate(472 222.002)">
              <g id="组_25-3" data-name="组 25" clip-path="url(#clip-path-6)">
                <path id="路径_18-3" data-name="路径 18" d="M476.717,228.422a.794.794,0,0,0,.787-.8c0-2.507,2.369-4,4.664-4,2.246,0,4.751,1.721,4.751,4a.787.787,0,1,0,1.573,0c0-3.3-3.33-5.613-6.324-5.613-3.068,0-6.237,2.1-6.237,5.6a.8.8,0,0,0,.787.812Zm15.2,1.545a2.129,2.129,0,0,0-1.659-.761H474.149a2.134,2.134,0,0,0-1.659.761,2.282,2.282,0,0,0-.462,1.8l1.684,10.415a2.79,2.79,0,0,0,2.668,2.281h11.649a2.766,2.766,0,0,0,2.656-2.294l1.684-10.4a2.186,2.186,0,0,0-.447-1.8Zm-14.481,5.6a1.584,1.584,0,1,1,1.548-1.583,1.562,1.562,0,0,1-1.548,1.583Zm9.443,0a1.584,1.584,0,1,1,1.545-1.583,1.563,1.563,0,0,1-1.545,1.583Zm0,0" transform="translate(-472 -222.005)" fill="#ff5656"/>
              </g>
            </g>
          </g>
        </g>
      </g>
    </g>
  </g>
</svg>
