<svg xmlns="http://www.w3.org/2000/svg" xmlns:xlink="http://www.w3.org/1999/xlink" width="40" height="40" viewBox="0 0 40 40">
  <defs>
    <clipPath id="clip-path">
      <rect id="矩形_107" data-name="矩形 107" width="40" height="40" transform="translate(696 625)" fill="none"/>
    </clipPath>
    <clipPath id="clip-path-2">
      <path id="路径_91" data-name="路径 91" d="M483.379,115.681a13.532,13.532,0,0,0,9.1,12.962c9.6,3.537,13.972,4.561,20.466,15.248a19.134,19.134,0,0,1,0,20.124H472.855V115.681Z" transform="translate(163.527 469.847) rotate(5)" fill="#9097ff" opacity="0.73"/>
    </clipPath>
    <clipPath id="clip-path-3">
      <path id="路径_90" data-name="路径 90" d="M483.379,115.681a13.532,13.532,0,0,0,9.1,12.962c9.6,3.537,13.972,4.561,20.466,15.248a19.134,19.134,0,0,1,0,20.124H472.855V115.681Z" transform="translate(202.042 389.428) rotate(16)" fill="#6670ff" opacity="0.65"/>
    </clipPath>
  </defs>
  <g id="蒙版组_76" data-name="蒙版组 76" transform="translate(-696 -625)" clip-path="url(#clip-path)">
    <g id="组_211" data-name="组 211">
      <rect id="矩形_26" data-name="矩形 26" width="40" height="40" rx="5" transform="translate(696 625)" fill="#f2f3ff"/>
      <g id="组_210" data-name="组 210">
        <g id="组_47" data-name="组 47" transform="translate(312 63.991)">
          <path id="路径_31" data-name="路径 31" d="M412.377,570.009a1.19,1.19,0,0,1,.819.247,1.394,1.394,0,0,1,.266.855v21.063l-3.625-2.091-3.054,2.091-3.053-2.091-3.053,2.091-3.053-2.091L394,592.174V571.092a1.162,1.162,0,0,1,.248-.835,1.175,1.175,0,0,1,.85-.247Zm-8.106,9.19h-5.406v2.162h5.406Zm4.324-4.324h-9.731v2.162H408.6Zm0,0" fill="#d0d3ff"/>
        </g>
        <g id="蒙版组_45" data-name="蒙版组 45" transform="translate(70)" clip-path="url(#clip-path-2)">
          <g id="组_125" data-name="组 125" transform="translate(242 63.991)">
            <path id="路径_31-2" data-name="路径 31" d="M412.377,570.009a1.19,1.19,0,0,1,.819.247,1.394,1.394,0,0,1,.266.855v21.063l-3.625-2.091-3.054,2.091-3.053-2.091-3.053,2.091-3.053-2.091L394,592.174V571.092a1.162,1.162,0,0,1,.248-.835,1.175,1.175,0,0,1,.85-.247Zm-8.106,9.19h-5.406v2.162h5.406Zm4.324-4.324h-9.731v2.162H408.6Zm0,0" fill="#9097ff"/>
          </g>
        </g>
        <g id="蒙版组_46" data-name="蒙版组 46" transform="translate(70)" clip-path="url(#clip-path-3)">
          <g id="组_126" data-name="组 126" transform="translate(242 63.991)">
            <path id="路径_31-3" data-name="路径 31" d="M412.377,570.009a1.19,1.19,0,0,1,.819.247,1.394,1.394,0,0,1,.266.855v21.063l-3.625-2.091-3.054,2.091-3.053-2.091-3.053,2.091-3.053-2.091L394,592.174V571.092a1.162,1.162,0,0,1,.248-.835,1.175,1.175,0,0,1,.85-.247Zm-8.106,9.19h-5.406v2.162h5.406Zm4.324-4.324h-9.731v2.162H408.6Zm0,0" fill="#6670ff"/>
          </g>
        </g>
      </g>
    </g>
  </g>
</svg>
