<svg xmlns="http://www.w3.org/2000/svg" xmlns:xlink="http://www.w3.org/1999/xlink" width="40" height="40" viewBox="0 0 40 40">
  <defs>
    <clipPath id="clip-path">
      <rect id="矩形_104" data-name="矩形 104" width="40" height="40" transform="translate(460 625)" fill="none"/>
    </clipPath>
    <clipPath id="clip-path-2">
      <rect id="矩形_49" data-name="矩形 49" width="22.029" height="22.052" fill="#d0d3ff"/>
    </clipPath>
    <clipPath id="clip-path-3">
      <path id="路径_85" data-name="路径 85" d="M483.379,115.681a13.532,13.532,0,0,0,9.1,12.962c9.6,3.537,13.972,4.561,20.466,15.248a19.134,19.134,0,0,1,0,20.124H472.855V115.681Z" transform="translate(-86.829 513.313)" fill="#9097ff" opacity="0.73"/>
    </clipPath>
    <clipPath id="clip-path-4">
      <rect id="矩形_49-2" data-name="矩形 49" width="22.029" height="22.052" fill="#9097ff"/>
    </clipPath>
    <clipPath id="clip-path-5">
      <path id="路径_84" data-name="路径 84" d="M483.379,115.681a13.532,13.532,0,0,0,9.1,12.962c9.6,3.537,13.972,4.561,20.466,15.248a19.134,19.134,0,0,1,0,20.124H472.855V115.681Z" transform="translate(-91.357 517.255)" fill="#6670ff" opacity="0.65"/>
    </clipPath>
    <clipPath id="clip-path-6">
      <rect id="矩形_49-3" data-name="矩形 49" width="22.029" height="22.052" fill="#6670ff"/>
    </clipPath>
  </defs>
  <g id="蒙版组_73" data-name="蒙版组 73" transform="translate(-460 -625)" clip-path="url(#clip-path)">
    <g id="组_205" data-name="组 205">
      <rect id="矩形_23" data-name="矩形 23" width="40" height="40" rx="5" transform="translate(460 625)" fill="#f2f3ff"/>
      <g id="组_204" data-name="组 204">
        <g id="组_53" data-name="组 53" transform="translate(312.996 63.991)" style="isolation: isolate">
          <g id="组_52" data-name="组 52" transform="translate(156.004 570.009)">
            <g id="组_51" data-name="组 51" clip-path="url(#clip-path-2)">
              <path id="路径_33" data-name="路径 33" d="M170.825,576.614a2.689,2.689,0,1,1,.791,1.9,2.685,2.685,0,0,1-.791-1.9Zm-12.918,0a2.7,2.7,0,1,1,2.7,2.683,2.695,2.695,0,0,1-2.7-2.683Zm5.551-2.933a3.594,3.594,0,1,1,7.187,0v0a3.594,3.594,0,0,1-7.187,0Zm-3.514,7.2L162,589.93h-2.065a2.48,2.48,0,0,1-2.472-2.127L156,582.32c0-.491.708-2.014,3.032-2.014h1.234a1.082,1.082,0,0,0-.323.572Zm14.925-.583c2.729,0,3.143,1.522,3.143,2.014l-1.46,5.484a2.534,2.534,0,0,1-2.471,2.125h-2.065l2.054-9.053a1.071,1.071,0,0,0-.3-.571h1.1Zm-5.28-1.243c1.822-.157,3.6,1.522,3.6,2.015l-1.913,8.4a3.6,3.6,0,0,1-3.255,2.574h-2.022a3.794,3.794,0,0,1-3.252-2.576l-1.912-8.394c0-.493,1.753-2.015,3.595-2.015h5.164Zm0,0" transform="translate(-156.003 -570.011)" fill="#d0d3ff"/>
            </g>
          </g>
        </g>
        <g id="蒙版组_39" data-name="蒙版组 39" transform="translate(70)" clip-path="url(#clip-path-3)" style="isolation: isolate">
          <g id="组_119" data-name="组 119" transform="translate(242.996 63.991)">
            <g id="组_52-2" data-name="组 52" transform="translate(156.004 570.009)">
              <g id="组_51-2" data-name="组 51" clip-path="url(#clip-path-4)">
                <path id="路径_33-2" data-name="路径 33" d="M170.825,576.614a2.689,2.689,0,1,1,.791,1.9,2.685,2.685,0,0,1-.791-1.9Zm-12.918,0a2.7,2.7,0,1,1,2.7,2.683,2.695,2.695,0,0,1-2.7-2.683Zm5.551-2.933a3.594,3.594,0,1,1,7.187,0v0a3.594,3.594,0,0,1-7.187,0Zm-3.514,7.2L162,589.93h-2.065a2.48,2.48,0,0,1-2.472-2.127L156,582.32c0-.491.708-2.014,3.032-2.014h1.234a1.082,1.082,0,0,0-.323.572Zm14.925-.583c2.729,0,3.143,1.522,3.143,2.014l-1.46,5.484a2.534,2.534,0,0,1-2.471,2.125h-2.065l2.054-9.053a1.071,1.071,0,0,0-.3-.571h1.1Zm-5.28-1.243c1.822-.157,3.6,1.522,3.6,2.015l-1.913,8.4a3.6,3.6,0,0,1-3.255,2.574h-2.022a3.794,3.794,0,0,1-3.252-2.576l-1.912-8.394c0-.493,1.753-2.015,3.595-2.015h5.164Zm0,0" transform="translate(-156.003 -570.011)" fill="#9097ff"/>
              </g>
            </g>
          </g>
        </g>
        <g id="蒙版组_40" data-name="蒙版组 40" transform="translate(70)" clip-path="url(#clip-path-5)" style="isolation: isolate">
          <g id="组_120" data-name="组 120" transform="translate(242.996 63.991)">
            <g id="组_52-3" data-name="组 52" transform="translate(156.004 570.009)">
              <g id="组_51-3" data-name="组 51" clip-path="url(#clip-path-6)">
                <path id="路径_33-3" data-name="路径 33" d="M170.825,576.614a2.689,2.689,0,1,1,.791,1.9,2.685,2.685,0,0,1-.791-1.9Zm-12.918,0a2.7,2.7,0,1,1,2.7,2.683,2.695,2.695,0,0,1-2.7-2.683Zm5.551-2.933a3.594,3.594,0,1,1,7.187,0v0a3.594,3.594,0,0,1-7.187,0Zm-3.514,7.2L162,589.93h-2.065a2.48,2.48,0,0,1-2.472-2.127L156,582.32c0-.491.708-2.014,3.032-2.014h1.234a1.082,1.082,0,0,0-.323.572Zm14.925-.583c2.729,0,3.143,1.522,3.143,2.014l-1.46,5.484a2.534,2.534,0,0,1-2.471,2.125h-2.065l2.054-9.053a1.071,1.071,0,0,0-.3-.571h1.1Zm-5.28-1.243c1.822-.157,3.6,1.522,3.6,2.015l-1.913,8.4a3.6,3.6,0,0,1-3.255,2.574h-2.022a3.794,3.794,0,0,1-3.252-2.576l-1.912-8.394c0-.493,1.753-2.015,3.595-2.015h5.164Zm0,0" transform="translate(-156.003 -570.011)" fill="#6670ff"/>
              </g>
            </g>
          </g>
        </g>
      </g>
    </g>
  </g>
</svg>
