<svg xmlns="http://www.w3.org/2000/svg" xmlns:xlink="http://www.w3.org/1999/xlink" width="40" height="40" viewBox="0 0 40 40"><defs><style>.a{fill:none;}.b,.h{fill:#ffe13e;}.b{opacity:0.73;}.c,.j{fill:#ffd800;}.c{opacity:0.65;}.d{clip-path:url(#a);}.e{fill:#fff9d5;}.f{fill:#ffea7c;}.g{clip-path:url(#b);}.i{clip-path:url(#c);}</style><clipPath id="a"><rect class="a" width="40" height="40" transform="translate(978 392)"/></clipPath><clipPath id="b"><path class="b" d="M483.379,115.681a13.532,13.532,0,0,0,9.1,12.962c9.6,3.537,13.972,4.561,20.466,15.248a19.134,19.134,0,0,1,0,20.124H472.855V115.681Z" transform="translate(505.145 286.319)"/></clipPath><clipPath id="c"><path class="c" d="M483.379,115.681a13.532,13.532,0,0,0,9.1,12.962c9.6,3.537,13.972,4.561,20.466,15.248a19.134,19.134,0,0,1,0,20.124H472.855V115.681Z" transform="translate(481.385 403.772) rotate(-13)"/></clipPath></defs><g transform="translate(-978 -392)"><g class="d"><rect class="e" width="40" height="40" rx="5" transform="translate(978 392)"/><path class="f" d="M51.276,3.269h-3.41a.808.808,0,0,1-.545-.165.8.8,0,0,1-.261-.418,1.861,1.861,0,0,1-.076-.572,3.563,3.563,0,0,1,.054-.6c.022-.187.054-.4.1-.616a1.876,1.876,0,0,1,.218-.561.717.717,0,0,1,.37-.308.619.619,0,0,1,.545.132c.251.154.545.319.861.495s.632.352.937.539.588.341.85.484.458.264.6.341a1.444,1.444,0,0,1,.381.4.594.594,0,0,1,.1.407.473.473,0,0,1-.207.319.862.862,0,0,1-.512.132Zm1.972-.022h3.388a.808.808,0,0,0,.545-.165.805.805,0,0,0,.261-.418,1.861,1.861,0,0,0,.076-.572c0-.209-.011-.418-.022-.6-.033-.187-.076-.385-.109-.6a1.645,1.645,0,0,0-.207-.55.717.717,0,0,0-.37-.308.677.677,0,0,0-.556.1c-.251.154-.545.319-.861.495s-.632.352-.948.539-.6.341-.861.484-.447.264-.566.341a1.27,1.27,0,0,0-.4.4.594.594,0,0,0-.1.407.473.473,0,0,0,.207.319.765.765,0,0,0,.523.143Zm-2.32,1.682H43.585a1.431,1.431,0,0,0-1.046.264,1.238,1.238,0,0,0-.24.857V8.292a1.436,1.436,0,0,0,.261.945,1.338,1.338,0,0,0,1.046.308h7.309V4.929h.011Zm2.745,0h7.233a1.481,1.481,0,0,1,1.1.319,1.281,1.281,0,0,1,.294.9v2.2a1.307,1.307,0,0,1-.261.9,1.385,1.385,0,0,1-1.046.3H53.683V4.929h-.011ZM50.927,10.9H43.16v8.376a2.662,2.662,0,0,0,.73,2.012A3.183,3.183,0,0,0,46.167,22h4.749V10.9h.011Zm2.745,0h7.734v8.288a3.015,3.015,0,0,1-.73,2.056,2.944,2.944,0,0,1-2.255.747H53.672Z" transform="translate(945.7 401)"/><g class="g" transform="translate(0 -1)"><path class="h" d="M51.276,3.269h-3.41a.808.808,0,0,1-.545-.165.8.8,0,0,1-.261-.418,1.861,1.861,0,0,1-.076-.572,3.563,3.563,0,0,1,.054-.6c.022-.187.054-.4.1-.616a1.876,1.876,0,0,1,.218-.561.717.717,0,0,1,.37-.308.619.619,0,0,1,.545.132c.251.154.545.319.861.495s.632.352.937.539.588.341.85.484.458.264.6.341a1.444,1.444,0,0,1,.381.4.594.594,0,0,1,.1.407.473.473,0,0,1-.207.319.862.862,0,0,1-.512.132Zm1.972-.022h3.388a.808.808,0,0,0,.545-.165.805.805,0,0,0,.261-.418,1.861,1.861,0,0,0,.076-.572c0-.209-.011-.418-.022-.6-.033-.187-.076-.385-.109-.6a1.645,1.645,0,0,0-.207-.55.717.717,0,0,0-.37-.308.677.677,0,0,0-.556.1c-.251.154-.545.319-.861.495s-.632.352-.948.539-.6.341-.861.484-.447.264-.566.341a1.27,1.27,0,0,0-.4.4.594.594,0,0,0-.1.407.473.473,0,0,0,.207.319.765.765,0,0,0,.523.143Zm-2.32,1.682H43.585a1.431,1.431,0,0,0-1.046.264,1.238,1.238,0,0,0-.24.857V8.292a1.436,1.436,0,0,0,.261.945,1.338,1.338,0,0,0,1.046.308h7.309V4.929h.011Zm2.745,0h7.233a1.481,1.481,0,0,1,1.1.319,1.281,1.281,0,0,1,.294.9v2.2a1.307,1.307,0,0,1-.261.9,1.385,1.385,0,0,1-1.046.3H53.683V4.929h-.011ZM50.927,10.9H43.16v8.376a2.662,2.662,0,0,0,.73,2.012A3.183,3.183,0,0,0,46.167,22h4.749V10.9h.011Zm2.745,0h7.734v8.288a3.015,3.015,0,0,1-.73,2.056,2.944,2.944,0,0,1-2.255.747H53.672Z" transform="translate(945.7 402)"/></g><g class="i" transform="translate(0 -1)"><path class="j" d="M51.276,3.269h-3.41a.808.808,0,0,1-.545-.165.8.8,0,0,1-.261-.418,1.861,1.861,0,0,1-.076-.572,3.563,3.563,0,0,1,.054-.6c.022-.187.054-.4.1-.616a1.876,1.876,0,0,1,.218-.561.717.717,0,0,1,.37-.308.619.619,0,0,1,.545.132c.251.154.545.319.861.495s.632.352.937.539.588.341.85.484.458.264.6.341a1.444,1.444,0,0,1,.381.4.594.594,0,0,1,.1.407.473.473,0,0,1-.207.319.862.862,0,0,1-.512.132Zm1.972-.022h3.388a.808.808,0,0,0,.545-.165.805.805,0,0,0,.261-.418,1.861,1.861,0,0,0,.076-.572c0-.209-.011-.418-.022-.6-.033-.187-.076-.385-.109-.6a1.645,1.645,0,0,0-.207-.55.717.717,0,0,0-.37-.308.677.677,0,0,0-.556.1c-.251.154-.545.319-.861.495s-.632.352-.948.539-.6.341-.861.484-.447.264-.566.341a1.27,1.27,0,0,0-.4.4.594.594,0,0,0-.1.407.473.473,0,0,0,.207.319.765.765,0,0,0,.523.143Zm-2.32,1.682H43.585a1.431,1.431,0,0,0-1.046.264,1.238,1.238,0,0,0-.24.857V8.292a1.436,1.436,0,0,0,.261.945,1.338,1.338,0,0,0,1.046.308h7.309V4.929h.011Zm2.745,0h7.233a1.481,1.481,0,0,1,1.1.319,1.281,1.281,0,0,1,.294.9v2.2a1.307,1.307,0,0,1-.261.9,1.385,1.385,0,0,1-1.046.3H53.683V4.929h-.011ZM50.927,10.9H43.16v8.376a2.662,2.662,0,0,0,.73,2.012A3.183,3.183,0,0,0,46.167,22h4.749V10.9h.011Zm2.745,0h7.734v8.288a3.015,3.015,0,0,1-.73,2.056,2.944,2.944,0,0,1-2.255.747H53.672Z" transform="translate(945.7 402)"/></g></g><rect class="a" width="40" height="40" transform="translate(978 392)"/></g></svg>