<svg xmlns="http://www.w3.org/2000/svg" xmlns:xlink="http://www.w3.org/1999/xlink" width="40" height="40" viewBox="0 0 40 40">
  <defs>
    <clipPath id="clip-path">
      <rect id="矩形_98" data-name="矩形 98" width="40" height="40" transform="translate(384 441)" fill="none"/>
    </clipPath>
    <clipPath id="clip-path-2">
      <path id="路径_73" data-name="路径 73" d="M483.379,115.681a13.532,13.532,0,0,0,9.1,12.962c9.6,3.537,13.972,4.561,20.466,15.248a19.134,19.134,0,0,1,0,20.124H472.855V115.681Z" transform="translate(-166.806 325.319)" fill="#b78dff" opacity="0.2"/>
    </clipPath>
    <clipPath id="clip-path-3">
      <path id="路径_72" data-name="路径 72" d="M483.379,115.681a13.532,13.532,0,0,0,9.1,12.962c9.6,3.537,13.972,4.561,20.466,15.248a19.134,19.134,0,0,1,0,20.124H472.855V115.681Z" transform="matrix(0.985, -0.174, 0.174, 0.985, -188.115, 420.083)" fill="#8e4dfb" opacity="0.2"/>
    </clipPath>
  </defs>
  <g id="蒙版组_67" data-name="蒙版组 67" transform="translate(-384 -441)" clip-path="url(#clip-path)">
    <g id="组_192" data-name="组 192">
      <rect id="矩形_7" data-name="矩形 7" width="40" height="40" rx="5" transform="translate(384 441)" fill="#f2eff9"/>
      <g id="组_191" data-name="组 191">
        <g id="组_24" data-name="组 24" transform="translate(314 63.981)">
          <path id="路径_15" data-name="路径 15" d="M79.938,388.019h20.578a.938.938,0,0,1,.938.938v2.428H79v-2.428a.938.938,0,0,1,.938-.938Zm0,0" transform="translate(0 0)" fill="#dbcff8"/>
          <rect id="矩形_34" data-name="矩形 34" width="6.659" height="3.484" transform="translate(79 392.486)" fill="#dbcff8"/>
          <rect id="矩形_35" data-name="矩形 35" width="6.659" height="3.484" transform="translate(86.897 392.486)" fill="#dbcff8"/>
          <rect id="矩形_36" data-name="矩形 36" width="6.659" height="3.484" transform="translate(94.794 392.486)" fill="#dbcff8"/>
          <rect id="矩形_37" data-name="矩形 37" width="6.659" height="3.484" transform="translate(79 397.07)" fill="#dbcff8"/>
          <rect id="矩形_38" data-name="矩形 38" width="6.659" height="3.484" transform="translate(86.897 397.07)" fill="#dbcff8"/>
          <rect id="矩形_39" data-name="矩形 39" width="6.659" height="3.484" transform="translate(94.794 397.07)" fill="#dbcff8"/>
          <path id="路径_16" data-name="路径 16" d="M79,404.409h6.655v3.484H79.938a.938.938,0,0,1-.938-.938Zm0,0" transform="translate(0 -2.754)" fill="#dbcff8"/>
          <rect id="矩形_40" data-name="矩形 40" width="6.659" height="3.484" transform="translate(86.897 401.655)" fill="#dbcff8"/>
          <path id="路径_17" data-name="路径 17" d="M97.984,404.409h6.655v2.547a.937.937,0,0,1-.937.938H97.984Zm0,0" transform="translate(-3.19 -2.754)" fill="#dbcff8"/>
        </g>
        <g id="蒙版组_25" data-name="蒙版组 25" transform="translate(70)" clip-path="url(#clip-path-2)">
          <g id="组_107" data-name="组 107" transform="translate(244 63.981)">
            <path id="路径_15-2" data-name="路径 15" d="M79.938,388.019h20.578a.938.938,0,0,1,.938.938v2.428H79v-2.428a.938.938,0,0,1,.938-.938Zm0,0" transform="translate(0 0)" fill="#b78dff"/>
            <rect id="矩形_34-2" data-name="矩形 34" width="6.659" height="3.484" transform="translate(79 392.486)" fill="#b78dff"/>
            <rect id="矩形_35-2" data-name="矩形 35" width="6.659" height="3.484" transform="translate(86.897 392.486)" fill="#b78dff"/>
            <rect id="矩形_36-2" data-name="矩形 36" width="6.659" height="3.484" transform="translate(94.794 392.486)" fill="#b78dff"/>
            <rect id="矩形_37-2" data-name="矩形 37" width="6.659" height="3.484" transform="translate(79 397.07)" fill="#b78dff"/>
            <rect id="矩形_38-2" data-name="矩形 38" width="6.659" height="3.484" transform="translate(86.897 397.07)" fill="#b78dff"/>
            <rect id="矩形_39-2" data-name="矩形 39" width="6.659" height="3.484" transform="translate(94.794 397.07)" fill="#b78dff"/>
            <path id="路径_16-2" data-name="路径 16" d="M79,404.409h6.655v3.484H79.938a.938.938,0,0,1-.938-.938Zm0,0" transform="translate(0 -2.754)" fill="#b78dff"/>
            <rect id="矩形_40-2" data-name="矩形 40" width="6.659" height="3.484" transform="translate(86.897 401.655)" fill="#b78dff"/>
            <path id="路径_17-2" data-name="路径 17" d="M97.984,404.409h6.655v2.547a.937.937,0,0,1-.937.938H97.984Zm0,0" transform="translate(-3.19 -2.754)" fill="#b78dff"/>
          </g>
        </g>
        <g id="蒙版组_26" data-name="蒙版组 26" transform="translate(70)" clip-path="url(#clip-path-3)">
          <g id="组_108" data-name="组 108" transform="translate(244 63.981)">
            <path id="路径_15-3" data-name="路径 15" d="M79.938,388.019h20.578a.938.938,0,0,1,.938.938v2.428H79v-2.428a.938.938,0,0,1,.938-.938Zm0,0" transform="translate(0 0)" fill="#8e4dfb"/>
            <rect id="矩形_34-3" data-name="矩形 34" width="6.659" height="3.484" transform="translate(79 392.486)" fill="#8e4dfb"/>
            <rect id="矩形_35-3" data-name="矩形 35" width="6.659" height="3.484" transform="translate(86.897 392.486)" fill="#8e4dfb"/>
            <rect id="矩形_36-3" data-name="矩形 36" width="6.659" height="3.484" transform="translate(94.794 392.486)" fill="#8e4dfb"/>
            <rect id="矩形_37-3" data-name="矩形 37" width="6.659" height="3.484" transform="translate(79 397.07)" fill="#8e4dfb"/>
            <rect id="矩形_38-3" data-name="矩形 38" width="6.659" height="3.484" transform="translate(86.897 397.07)" fill="#8e4dfb"/>
            <rect id="矩形_39-3" data-name="矩形 39" width="6.659" height="3.484" transform="translate(94.794 397.07)" fill="#8e4dfb"/>
            <path id="路径_16-3" data-name="路径 16" d="M79,404.409h6.655v3.484H79.938a.938.938,0,0,1-.938-.938Zm0,0" transform="translate(0 -2.754)" fill="#8e4dfb"/>
            <rect id="矩形_40-3" data-name="矩形 40" width="6.659" height="3.484" transform="translate(86.897 401.655)" fill="#8e4dfb"/>
            <path id="路径_17-3" data-name="路径 17" d="M97.984,404.409h6.655v2.547a.937.937,0,0,1-.937.938H97.984Zm0,0" transform="translate(-3.19 -2.754)" fill="#8e4dfb"/>
          </g>
        </g>
      </g>
    </g>
  </g>
</svg>
