<svg xmlns="http://www.w3.org/2000/svg" xmlns:xlink="http://www.w3.org/1999/xlink" width="40" height="40" viewBox="0 0 40 40">
  <defs>
    <clipPath id="clip-path">
      <rect id="矩形_115" data-name="矩形 115" width="40" height="40" transform="translate(386 112)" fill="none"/>
    </clipPath>
    <clipPath id="clip-path-2">
      <path id="路径_123" data-name="路径 123" d="M483.379,115.681a13.532,13.532,0,0,0,9.1,12.962c9.6,3.537,13.972,4.561,20.466,15.248a19.134,19.134,0,0,1,0,20.124H472.855V115.681Z" transform="translate(-84.826 3.152)" fill="#3cfafa" opacity="0.73"/>
    </clipPath>
    <clipPath id="clip-path-3">
      <path id="路径_124" data-name="路径 124" d="M483.379,115.681a13.532,13.532,0,0,0,9.1,12.962c9.6,3.537,13.972,4.561,20.466,15.248a19.134,19.134,0,0,1,0,20.124H472.855V115.681Z" transform="translate(-105.614 112.151) rotate(-12)" fill="#00e3e3" opacity="0.65"/>
    </clipPath>
  </defs>
  <g id="组_239" data-name="组 239" transform="translate(-386 -112)">
    <g id="蒙版组_86" data-name="蒙版组 86" clip-path="url(#clip-path)">
      <g id="组_237" data-name="组 237">
        <rect id="矩形_3" data-name="矩形 3" width="40" height="40" rx="5" transform="translate(386 112)" fill="#e5ffff"/>
        <g id="组_236" data-name="组 236">
          <path id="FormatPainterFilled" d="M125.865,115.542l.412.522a3.094,3.094,0,0,1-.115,4l-.1.1-1.167,1.167,3.012,3.012a2.541,2.541,0,0,1,.2,3.4l-.084.1-.082.086a2.533,2.533,0,0,1-3.49.062l-.095-.091-3.013-3.012-1.165,1.166a3.086,3.086,0,0,1-3.882.372l-.118-.081-.1-.079-.522-.412,10.315-10.314Zm-6.56-8.294.081.087.076.091,5.321,6.742-10.605,10.605-6.744-5.319a1.981,1.981,0,0,1-.355-2.771l.075-.09.08-.085,1.173-1.173,2.734,1.615.047.023a.289.289,0,0,0,.324-.456l-1.934-2.354,1.567-1.567,2.759,1.792.046.024a.289.289,0,0,0,.353-.426l-1.8-2.748,1.414-1.414,1.955,1.849.041.032a.289.289,0,0,0,.416-.376l-1.334-2.582,1.523-1.522a1.971,1.971,0,0,1,2.788.023Z" transform="translate(288.332 14.341)" fill="#81ffff"/>
          <g id="蒙版组_84" data-name="蒙版组 84" clip-path="url(#clip-path-2)">
            <path id="FormatPainterFilled-2" data-name="FormatPainterFilled" d="M125.865,115.542l.412.522a3.094,3.094,0,0,1-.115,4l-.1.1-1.167,1.167,3.012,3.012a2.541,2.541,0,0,1,.2,3.4l-.084.1-.082.086a2.533,2.533,0,0,1-3.49.062l-.095-.091-3.013-3.012-1.165,1.166a3.086,3.086,0,0,1-3.882.372l-.118-.081-.1-.079-.522-.412,10.315-10.314Zm-6.56-8.294.081.087.076.091,5.321,6.742-10.605,10.605-6.744-5.319a1.981,1.981,0,0,1-.355-2.771l.075-.09.08-.085,1.173-1.173,2.734,1.615.047.023a.289.289,0,0,0,.324-.456l-1.934-2.354,1.567-1.567,2.759,1.792.046.024a.289.289,0,0,0,.353-.426l-1.8-2.748,1.414-1.414,1.955,1.849.041.032a.289.289,0,0,0,.416-.376l-1.334-2.582,1.523-1.522a1.971,1.971,0,0,1,2.788.023Z" transform="translate(288.332 14.341)" fill="#3cfafa"/>
          </g>
          <g id="蒙版组_85" data-name="蒙版组 85" clip-path="url(#clip-path-3)">
            <path id="FormatPainterFilled-3" data-name="FormatPainterFilled" d="M125.865,115.542l.412.522a3.094,3.094,0,0,1-.115,4l-.1.1-1.167,1.167,3.012,3.012a2.541,2.541,0,0,1,.2,3.4l-.084.1-.082.086a2.533,2.533,0,0,1-3.49.062l-.095-.091-3.013-3.012-1.165,1.166a3.086,3.086,0,0,1-3.882.372l-.118-.081-.1-.079-.522-.412,10.315-10.314Zm-6.56-8.294.081.087.076.091,5.321,6.742-10.605,10.605-6.744-5.319a1.981,1.981,0,0,1-.355-2.771l.075-.09.08-.085,1.173-1.173,2.734,1.615.047.023a.289.289,0,0,0,.324-.456l-1.934-2.354,1.567-1.567,2.759,1.792.046.024a.289.289,0,0,0,.353-.426l-1.8-2.748,1.414-1.414,1.955,1.849.041.032a.289.289,0,0,0,.416-.376l-1.334-2.582,1.523-1.522a1.971,1.971,0,0,1,2.788.023Z" transform="translate(288.332 14.341)" fill="#00e3e3"/>
          </g>
        </g>
      </g>
    </g>
    <rect id="矩形_117" data-name="矩形 117" width="40" height="40" transform="translate(386 112)" fill="none"/>
  </g>
</svg>
