<svg xmlns="http://www.w3.org/2000/svg" xmlns:xlink="http://www.w3.org/1999/xlink" width="40" height="40" viewBox="0 0 40 40">
  <defs>
    <clipPath id="clip-path">
      <rect id="矩形_89" data-name="矩形 89" width="40" height="40" transform="translate(386 282)" fill="none"/>
    </clipPath>
    <clipPath id="clip-path-2">
      <rect id="矩形_52" data-name="矩形 52" width="19" height="21" fill="#ffc8c8"/>
    </clipPath>
    <clipPath id="clip-path-3">
      <path id="路径_45" data-name="路径 45" d="M483.379,115.681a13.532,13.532,0,0,0,9.1,12.962c9.6,3.537,13.972,4.561,20.466,15.248a19.134,19.134,0,0,1,0,20.124H472.855V115.681Z" transform="matrix(0.974, 0.225, -0.225, 0.974, -118.591, 63.701)" fill="#ff8989" opacity="0.2"/>
    </clipPath>
    <clipPath id="clip-path-4">
      <rect id="矩形_52-2" data-name="矩形 52" width="19" height="21" fill="#ff8989"/>
    </clipPath>
    <clipPath id="clip-path-5">
      <path id="路径_44" data-name="路径 44" d="M483.379,115.681a13.532,13.532,0,0,0,9.1,12.962c9.6,3.537,13.972,4.561,20.466,15.248a19.134,19.134,0,0,1,0,20.124H472.855V115.681Z" transform="matrix(0.914, 0.407, -0.407, 0.914, -67.187, -13.37)" fill="#ff5656" opacity="0.2"/>
    </clipPath>
    <clipPath id="clip-path-6">
      <rect id="矩形_52-3" data-name="矩形 52" width="19" height="21" fill="#ff5656"/>
    </clipPath>
  </defs>
  <g id="蒙版组_58" data-name="蒙版组 58" transform="translate(-386 -282)" clip-path="url(#clip-path)">
    <g id="组_175" data-name="组 175">
      <g id="组_174" data-name="组 174">
        <rect id="矩形_13" data-name="矩形 13" width="40" height="40" rx="5" transform="translate(386 282)" fill="#ffebeb"/>
        <g id="组_77" data-name="组 77" transform="translate(315.995 66.995)">
          <g id="组_62" data-name="组 62" transform="translate(81.005 225.005)">
            <g id="组_61" data-name="组 61" clip-path="url(#clip-path-2)">
              <path id="路径_38" data-name="路径 38" d="M96.285,228H88.866a.694.694,0,0,1-.687-.7v-1.588a.694.694,0,0,1,.687-.7h7.421a.694.694,0,0,1,.687.7V227.3a.7.7,0,0,1-.689.7Zm0,0" transform="translate(-83.074 -225.007)" fill="#ffc8c8"/>
              <path id="路径_39" data-name="路径 39" d="M99.318,227.08H97.033a.694.694,0,0,0-.687.7v1.591a.694.694,0,0,1-.687.7H85.3a.693.693,0,0,1-.687-.7v-1.591a.694.694,0,0,0-.687-.7H81.687a.694.694,0,0,0-.687.7V245.84a.693.693,0,0,0,.687.7H99.318a.694.694,0,0,0,.687-.7V227.783a.7.7,0,0,0-.687-.7Zm-5.323,14.3v.005h-.073c-.037,0-.075,0-.112,0s-.075,0-.112,0H90.9c-.041,0-.085,0-.126,0s-.085,0-.126,0H86.8c-.034,0-.069,0-.1,0s-.068,0-.1,0a2.4,2.4,0,1,1,.657-4.735,3.671,3.671,0,0,1,3.524-2.741,3.626,3.626,0,0,1,3.038,1.66,2.911,2.911,0,0,1,.176,5.811Zm0,0" transform="translate(-81.003 -225.571)" fill="#ffc8c8"/>
            </g>
          </g>
        </g>
      </g>
      <g id="蒙版组_7" data-name="蒙版组 7" transform="translate(70)" clip-path="url(#clip-path-3)">
        <g id="组_78" data-name="组 78" transform="translate(245.995 66.995)">
          <g id="组_62-2" data-name="组 62" transform="translate(81.005 225.005)">
            <g id="组_61-2" data-name="组 61" clip-path="url(#clip-path-4)">
              <path id="路径_38-2" data-name="路径 38" d="M96.285,228H88.866a.694.694,0,0,1-.687-.7v-1.588a.694.694,0,0,1,.687-.7h7.421a.694.694,0,0,1,.687.7V227.3a.7.7,0,0,1-.689.7Zm0,0" transform="translate(-83.074 -225.007)" fill="#ff8989"/>
              <path id="路径_39-2" data-name="路径 39" d="M99.318,227.08H97.033a.694.694,0,0,0-.687.7v1.591a.694.694,0,0,1-.687.7H85.3a.693.693,0,0,1-.687-.7v-1.591a.694.694,0,0,0-.687-.7H81.687a.694.694,0,0,0-.687.7V245.84a.693.693,0,0,0,.687.7H99.318a.694.694,0,0,0,.687-.7V227.783a.7.7,0,0,0-.687-.7Zm-5.323,14.3v.005h-.073c-.037,0-.075,0-.112,0s-.075,0-.112,0H90.9c-.041,0-.085,0-.126,0s-.085,0-.126,0H86.8c-.034,0-.069,0-.1,0s-.068,0-.1,0a2.4,2.4,0,1,1,.657-4.735,3.671,3.671,0,0,1,3.524-2.741,3.626,3.626,0,0,1,3.038,1.66,2.911,2.911,0,0,1,.176,5.811Zm0,0" transform="translate(-81.003 -225.571)" fill="#ff8989"/>
            </g>
          </g>
        </g>
      </g>
      <g id="蒙版组_8" data-name="蒙版组 8" transform="translate(70)" clip-path="url(#clip-path-5)">
        <g id="组_79" data-name="组 79" transform="translate(245.995 66.995)">
          <g id="组_62-3" data-name="组 62" transform="translate(81.005 225.005)">
            <g id="组_61-3" data-name="组 61" clip-path="url(#clip-path-6)">
              <path id="路径_38-3" data-name="路径 38" d="M96.285,228H88.866a.694.694,0,0,1-.687-.7v-1.588a.694.694,0,0,1,.687-.7h7.421a.694.694,0,0,1,.687.7V227.3a.7.7,0,0,1-.689.7Zm0,0" transform="translate(-83.074 -225.007)" fill="#ff5656"/>
              <path id="路径_39-3" data-name="路径 39" d="M99.318,227.08H97.033a.694.694,0,0,0-.687.7v1.591a.694.694,0,0,1-.687.7H85.3a.693.693,0,0,1-.687-.7v-1.591a.694.694,0,0,0-.687-.7H81.687a.694.694,0,0,0-.687.7V245.84a.693.693,0,0,0,.687.7H99.318a.694.694,0,0,0,.687-.7V227.783a.7.7,0,0,0-.687-.7Zm-5.323,14.3v.005h-.073c-.037,0-.075,0-.112,0s-.075,0-.112,0H90.9c-.041,0-.085,0-.126,0s-.085,0-.126,0H86.8c-.034,0-.069,0-.1,0s-.068,0-.1,0a2.4,2.4,0,1,1,.657-4.735,3.671,3.671,0,0,1,3.524-2.741,3.626,3.626,0,0,1,3.038,1.66,2.911,2.911,0,0,1,.176,5.811Zm0,0" transform="translate(-81.003 -225.571)" fill="#ff5656"/>
            </g>
          </g>
        </g>
      </g>
    </g>
  </g>
</svg>
