<svg xmlns="http://www.w3.org/2000/svg" xmlns:xlink="http://www.w3.org/1999/xlink" width="40" height="40" viewBox="0 0 40 40"><defs><style>.a{fill:none;}.b,.h{fill:#ff8989;}.b{opacity:0.73;}.c,.j{fill:#ff5656;}.c{opacity:0.65;}.d{clip-path:url(#a);}.e{fill:#ffebeb;}.f{fill:#ffc8c8;}.g{clip-path:url(#b);}.i{clip-path:url(#c);}</style><clipPath id="a"><rect class="a" width="40" height="40" transform="translate(1202 536)"/></clipPath><clipPath id="b"><path class="b" d="M483.379,115.681a13.532,13.532,0,0,0,9.1,12.962c9.6,3.537,13.972,4.561,20.466,15.248a19.134,19.134,0,0,1,0,20.124H472.855V115.681Z" transform="translate(724.564 424.319)"/></clipPath><clipPath id="c"><path class="c" d="M483.379,115.681a13.532,13.532,0,0,0,9.1,12.962c9.6,3.537,13.972,4.561,20.466,15.248a19.134,19.134,0,0,1,0,20.124H472.855V115.681Z" transform="translate(726.174 432.152)"/></clipPath></defs><g transform="translate(-1100 -532)"><g class="d" transform="translate(-102 -4)"><rect class="e" width="40" height="40" rx="5" transform="translate(1202 536)"/><path class="f" d="M30.028,16.2H41.534v2.651H30.028Zm-2.056,1.149H25.39V8.95a.835.835,0,0,1,.831-.839h8.312v2.606H27.972v6.626Zm18.375,0H43.722V10.717H37.2V8.111h8.312a.835.835,0,0,1,.831.839v8.394Zm-21,11.884a.882.882,0,0,0,.875.884h19.25a.882.882,0,0,0,.875-.884V20.392h-21Zm12.206-7.952H42.8v1.767h-5.25ZM35.8,24.81h7v1.767h-7Z" transform="translate(1186.153 536.889)"/><g class="g"><path class="h" d="M30.028,16.2H41.534v2.651H30.028Zm-2.056,1.149H25.39V8.95a.835.835,0,0,1,.831-.839h8.312v2.606H27.972v6.626Zm18.375,0H43.722V10.717H37.2V8.111h8.312a.835.835,0,0,1,.831.839v8.394Zm-21,11.884a.882.882,0,0,0,.875.884h19.25a.882.882,0,0,0,.875-.884V20.392h-21Zm12.206-7.952H42.8v1.767h-5.25ZM35.8,24.81h7v1.767h-7Z" transform="translate(1186.153 536.889)"/></g><g class="i"><path class="j" d="M30.028,16.2H41.534v2.651H30.028Zm-2.056,1.149H25.39V8.95a.835.835,0,0,1,.831-.839h8.312v2.606H27.972v6.626Zm18.375,0H43.722V10.717H37.2V8.111h8.312a.835.835,0,0,1,.831.839v8.394Zm-21,11.884a.882.882,0,0,0,.875.884h19.25a.882.882,0,0,0,.875-.884V20.392h-21Zm12.206-7.952H42.8v1.767h-5.25ZM35.8,24.81h7v1.767h-7Z" transform="translate(1186.153 536.889)"/></g></g><rect class="a" width="40" height="40" transform="translate(1100 532)"/></g></svg>