<?xml version="1.0" standalone="no"?><!DOCTYPE svg PUBLIC "-//W3C//DTD SVG 1.1//EN" "http://www.w3.org/Graphics/SVG/1.1/DTD/svg11.dtd"><svg t="1722079236065" class="icon" viewBox="0 0 1039 1024" version="1.1" xmlns="http://www.w3.org/2000/svg" p-id="15461" xmlns:xlink="http://www.w3.org/1999/xlink" width="202.9296875" height="200"><path d="M1012.951446 150.875248l-466.371169 833.951683c-9.629149 17.217901-34.367366 17.319287-44.14099 0.185029L26.821703 150.953822C16.171089 132.283564 32.139406 109.664317 53.298693 113.451089l466.870495 83.448396c2.978218 0.532277 6.027406 0.527208 9.005624-0.015208l457.10701-83.314059c21.088317-3.845069 37.130139 18.596752 26.669624 37.307564z" fill="#BD34FE" p-id="15462"></path><path d="M742.564752 3.989545L397.436198 71.616634a12.673267 12.673267 0 0 0-10.214653 11.687287l-21.230258 358.562218c-0.499327 8.445465 7.256713 15.000079 15.499406 13.099089l96.088713-22.175683c8.990416-2.073347 17.11398 5.844911 15.266218 14.886019l-28.547802 139.793743c-1.921267 9.408634 6.912 17.453624 16.100119 14.66297l59.34891-18.031525c9.200792-2.793188 18.041663 5.274614 16.09505 14.690852l-45.367762 219.584634c-2.838812 13.735287 15.43097 21.225188 23.050138 9.449188l5.089584-7.86503 281.229941-561.243247c4.709386-9.39596-3.411644-20.112475-13.732752-18.122773l-98.907248 19.09101c-9.294574 1.792-17.202693-6.863842-14.579327-15.958178l64.555089-223.787089c2.625901-9.109545-5.310099-17.77299-14.614812-15.950574z" fill="#FFA800" p-id="15463"></path></svg>