<svg xmlns="http://www.w3.org/2000/svg" xmlns:xlink="http://www.w3.org/1999/xlink" width="40" height="40" viewBox="0 0 40 40">
  <defs>
    <clipPath id="clip-path">
      <rect id="矩形_106" data-name="矩形 106" width="40" height="40" transform="translate(618 625)" fill="none"/>
    </clipPath>
    <clipPath id="clip-path-2">
      <rect id="矩形_48" data-name="矩形 48" width="21.524" height="18.579" fill="#d0d3ff"/>
    </clipPath>
    <clipPath id="clip-path-3">
      <path id="路径_89" data-name="路径 89" d="M483.379,115.681a13.532,13.532,0,0,0,9.1,12.962c9.6,3.537,13.972,4.561,20.466,15.248a19.134,19.134,0,0,1,0,20.124H472.855V115.681Z" transform="translate(79.174 517.328)" fill="#9097ff" opacity="0.73"/>
    </clipPath>
    <clipPath id="clip-path-4">
      <rect id="矩形_48-2" data-name="矩形 48" width="21.524" height="18.579" fill="#9097ff"/>
    </clipPath>
    <clipPath id="clip-path-5">
      <path id="路径_88" data-name="路径 88" d="M483.379,115.681a13.532,13.532,0,0,0,9.1,12.962c9.6,3.537,13.972,4.561,20.466,15.248a19.134,19.134,0,0,1,0,20.124H472.855V115.681Z" transform="translate(212.856 278.402) rotate(32)" fill="#6670ff" opacity="0.65"/>
    </clipPath>
    <clipPath id="clip-path-6">
      <rect id="矩形_48-3" data-name="矩形 48" width="21.524" height="18.579" fill="#6670ff"/>
    </clipPath>
  </defs>
  <g id="蒙版组_75" data-name="蒙版组 75" transform="translate(-618 -625)" clip-path="url(#clip-path)">
    <g id="组_209" data-name="组 209">
      <rect id="矩形_25" data-name="矩形 25" width="40" height="40" rx="5" transform="translate(618 625)" fill="#f2f3ff"/>
      <g id="组_208" data-name="组 208">
        <g id="组_50" data-name="组 50" transform="translate(314 65)">
          <g id="组_49" data-name="组 49" transform="translate(313 571)">
            <g id="组_48" data-name="组 48" clip-path="url(#clip-path-2)">
              <path id="路径_32" data-name="路径 32" d="M333.648,579.227H329.5a.882.882,0,0,0-.853.91v.284a.885.885,0,0,0,.853.91h4.145a.883.883,0,0,0,.853-.91v-.284a.879.879,0,0,0-.849-.91Zm-9.621-7.8c-1.289,1.089-3.989,2.616-5.931,4.088h0c-.023.015-.045.095-.068.11-.231.137-.334.516-1.581.516h-2.43A.9.9,0,0,0,313,577.152v6.23a.916.916,0,0,0,1.013,1.046h2.442c1.24,0,1.342.379,1.57.516.023.015.045.095.068.11h0c1.881,1.467,4.6,3.113,5.931,4.159.4.315,1.737.869,1.737-1.076V572.423c0-1.949-1.346-1.327-1.737-1Zm3.826,4.3a.608.608,0,0,0,.975.231l3.409-3.052a1.087,1.087,0,0,0,.178-1.263l-.125-.235a.608.608,0,0,0-.975-.231l-3.409,3.053a1.087,1.087,0,0,0-.178,1.262Zm.975,8.892a.608.608,0,0,0-.975.231l-.125.235a1.087,1.087,0,0,0,.178,1.263l3.409,3.052a.608.608,0,0,0,.975-.231l.125-.234a1.087,1.087,0,0,0-.178-1.263Zm0,0" transform="translate(-313 -571.003)" fill="#d0d3ff"/>
            </g>
          </g>
        </g>
        <g id="蒙版组_43" data-name="蒙版组 43" transform="translate(70)" clip-path="url(#clip-path-3)">
          <g id="组_123" data-name="组 123" transform="translate(244 65)">
            <g id="组_49-2" data-name="组 49" transform="translate(313 571)">
              <g id="组_48-2" data-name="组 48" clip-path="url(#clip-path-4)">
                <path id="路径_32-2" data-name="路径 32" d="M333.648,579.227H329.5a.882.882,0,0,0-.853.91v.284a.885.885,0,0,0,.853.91h4.145a.883.883,0,0,0,.853-.91v-.284a.879.879,0,0,0-.849-.91Zm-9.621-7.8c-1.289,1.089-3.989,2.616-5.931,4.088h0c-.023.015-.045.095-.068.11-.231.137-.334.516-1.581.516h-2.43A.9.9,0,0,0,313,577.152v6.23a.916.916,0,0,0,1.013,1.046h2.442c1.24,0,1.342.379,1.57.516.023.015.045.095.068.11h0c1.881,1.467,4.6,3.113,5.931,4.159.4.315,1.737.869,1.737-1.076V572.423c0-1.949-1.346-1.327-1.737-1Zm3.826,4.3a.608.608,0,0,0,.975.231l3.409-3.052a1.087,1.087,0,0,0,.178-1.263l-.125-.235a.608.608,0,0,0-.975-.231l-3.409,3.053a1.087,1.087,0,0,0-.178,1.262Zm.975,8.892a.608.608,0,0,0-.975.231l-.125.235a1.087,1.087,0,0,0,.178,1.263l3.409,3.052a.608.608,0,0,0,.975-.231l.125-.234a1.087,1.087,0,0,0-.178-1.263Zm0,0" transform="translate(-313 -571.003)" fill="#9097ff"/>
              </g>
            </g>
          </g>
        </g>
        <g id="蒙版组_44" data-name="蒙版组 44" transform="translate(70)" clip-path="url(#clip-path-5)">
          <g id="组_124" data-name="组 124" transform="translate(244 65)">
            <g id="组_49-3" data-name="组 49" transform="translate(313 571)">
              <g id="组_48-3" data-name="组 48" clip-path="url(#clip-path-6)">
                <path id="路径_32-3" data-name="路径 32" d="M333.648,579.227H329.5a.882.882,0,0,0-.853.91v.284a.885.885,0,0,0,.853.91h4.145a.883.883,0,0,0,.853-.91v-.284a.879.879,0,0,0-.849-.91Zm-9.621-7.8c-1.289,1.089-3.989,2.616-5.931,4.088h0c-.023.015-.045.095-.068.11-.231.137-.334.516-1.581.516h-2.43A.9.9,0,0,0,313,577.152v6.23a.916.916,0,0,0,1.013,1.046h2.442c1.24,0,1.342.379,1.57.516.023.015.045.095.068.11h0c1.881,1.467,4.6,3.113,5.931,4.159.4.315,1.737.869,1.737-1.076V572.423c0-1.949-1.346-1.327-1.737-1Zm3.826,4.3a.608.608,0,0,0,.975.231l3.409-3.052a1.087,1.087,0,0,0,.178-1.263l-.125-.235a.608.608,0,0,0-.975-.231l-3.409,3.053a1.087,1.087,0,0,0-.178,1.262Zm.975,8.892a.608.608,0,0,0-.975.231l-.125.235a1.087,1.087,0,0,0,.178,1.263l3.409,3.052a.608.608,0,0,0,.975-.231l.125-.234a1.087,1.087,0,0,0-.178-1.263Zm0,0" transform="translate(-313 -571.003)" fill="#6670ff"/>
              </g>
            </g>
          </g>
        </g>
      </g>
    </g>
  </g>
</svg>
